<svg width="101" height="100" viewBox="0 0 101 100" fill="none" xmlns="http://www.w3.org/2000/svg">
<path d="M50.3066 68.0626C76.4333 68.0626 97.6132 59.9757 97.6132 50C97.6132 40.0244 76.4333 31.9375 50.3066 31.9375C24.1799 31.9375 3 40.0244 3 50C3 59.9757 24.1799 68.0626 50.3066 68.0626Z" stroke="black" stroke-width="5"/>
<path d="M34.664 59.0313C47.7273 81.6577 65.3207 95.9566 73.9599 90.9687C82.5991 85.9809 79.0125 63.5951 65.9492 40.9687C52.8858 18.3423 35.2924 4.04343 26.6533 9.03126C18.0141 14.0191 21.6006 36.4049 34.664 59.0313Z" stroke="black" stroke-width="5"/>
<path d="M34.664 40.9687C21.6006 63.5951 18.0141 85.9809 26.6533 90.9687C35.2925 95.9565 52.8858 81.6576 65.9492 59.0312C79.0126 36.4048 82.5991 14.0191 73.9599 9.03124C65.3207 4.04341 47.7273 18.3423 34.664 40.9687Z" stroke="black" stroke-width="5"/>
<path d="M52.8162 58.6325C57.6853 58.6325 61.6325 54.6853 61.6325 49.8162C61.6325 44.9472 57.6853 41 52.8162 41C47.9472 41 44 44.9472 44 49.8162C44 54.6853 47.9472 58.6325 52.8162 58.6325Z" fill="black"/>
</svg>
