<svg width="503" height="356" viewBox="0 0 503 356" fill="none" xmlns="http://www.w3.org/2000/svg">
<mask id="path-1-outside-1_307_8" maskUnits="userSpaceOnUse" x="0" y="0.883789" width="503" height="355" fill="black">
<rect fill="white" y="0.883789" width="503" height="355"/>
<path d="M120 5.99981C128.25 5.99981 136.5 5.99981 145 5.99981C146.217 8.88731 147.434 11.7748 148.688 14.7498C149.09 15.705 149.493 16.6602 149.907 17.6443C151.745 22.0069 153.571 26.3734 155.375 30.7498C156.884 34.3913 158.44 38.0086 160.035 41.6131C166.341 55.8956 172.198 70.3323 177.953 84.8433C181.884 94.7519 185.918 104.605 190.233 114.353C198.52 133.11 206.118 152.169 213.679 171.228C213.947 171.9 214.214 172.572 214.489 173.265C215.209 175.078 215.926 176.891 216.643 178.704C218.418 183.014 220.383 187.218 222.41 191.414C223.782 194.507 225.011 197.6 226.211 200.762C229.469 209.317 233.022 217.746 236.562 226.187C237.877 229.326 239.191 232.466 240.504 235.605C240.813 236.345 241.123 237.086 241.442 237.848C243.681 243.211 245.874 248.591 248 254C256.283 240.28 256.283 240.28 258.733 224.896C256.989 218.604 253.829 212.998 250.701 207.3C247.867 201.802 245.722 196.043 243.506 190.275C240.066 181.34 236.408 172.557 232.348 163.886C230.687 160.329 229.125 156.753 227.625 153.125C227.122 151.931 226.62 150.737 226.102 149.508C223.601 141.543 225.754 136.448 229.125 129.25C234.138 118.17 238.685 106.943 243.133 95.6279C246.398 87.3263 249.798 79.1687 253.599 71.0938C255.46 66.9832 257.04 62.7888 258.629 58.5667C261.425 51.2923 264.489 44.1247 267.5 36.9373C268.158 35.3638 268.815 33.7902 269.473 32.2166C270.43 29.9243 271.388 27.6323 272.348 25.341C273.757 21.9785 275.161 18.6146 276.547 15.2425C276.995 14.1531 277.444 13.0636 277.906 11.9412C278.291 11.0009 278.676 10.0606 279.072 9.09185C280 6.99981 280 6.99981 281 5.99981C283.922 5.90455 286.82 5.87428 289.742 5.88628C291.118 5.88606 291.118 5.88606 292.521 5.88584C295.568 5.88654 298.614 5.89433 301.66 5.90215C303.766 5.90402 305.872 5.90544 307.978 5.90644C313.533 5.91027 319.088 5.9201 324.643 5.93114C330.307 5.94136 335.971 5.94594 341.635 5.95098C352.757 5.96172 363.878 5.9788 375 5.99981C374.475 9.54768 373.867 12.7698 372.497 16.0865C372.041 17.2038 372.041 17.2038 371.576 18.3436C371.246 19.1312 370.917 19.9188 370.578 20.7303C370.236 21.5613 369.894 22.3924 369.542 23.2487C368.819 25.0039 368.092 26.7579 367.363 28.5108C366.262 31.1588 365.169 33.8104 364.078 36.4627C358.389 50.2525 358.389 50.2525 355.359 56.8006C352.951 62.0095 350.838 67.3241 348.727 72.6585C346.738 77.6764 344.696 82.6721 342.652 87.6678C342.078 89.0713 342.078 89.0713 341.493 90.5033C340.706 92.426 339.919 94.3485 339.132 96.271C337.935 99.1927 336.74 102.115 335.545 105.037C325.119 130.52 325.119 130.52 320.766 140.356C312.365 159.368 304.71 178.701 297 198C296.01 198 295.02 198 294 198C292.35 194.085 290.705 190.168 289.062 186.25C288.594 185.139 288.125 184.027 287.643 182.883C287.195 181.813 286.747 180.743 286.285 179.64C285.871 178.656 285.458 177.671 285.031 176.657C284.691 175.78 284.351 174.903 284 174C283.744 173.345 283.488 172.691 283.224 172.017C282.886 168.974 283.961 166.896 285.133 164.09C285.61 162.934 286.087 161.778 286.578 160.588C287.089 159.383 287.599 158.178 288.125 156.937C288.612 155.76 289.1 154.582 289.602 153.369C291.811 148.059 294.078 142.786 296.492 137.566C298.964 132.181 301.156 126.697 303.335 121.189C306.167 114.038 309.097 106.927 312.014 99.8099C313.067 97.2399 314.116 94.6687 315.166 92.0975C318.317 84.3971 321.503 76.7353 325 69.1839C326.336 66.2664 327.522 63.3013 328.688 60.3123C332.955 49.4721 337.506 38.7478 342 27.9998C326.82 28.3298 311.64 28.6598 296 28.9998C291.617 39.9774 291.617 39.9774 287.236 50.9559C282.896 61.822 278.502 72.6551 273.766 83.3558C266.09 100.728 259.077 118.377 252 136C251.601 136.925 251.201 137.849 250.79 138.802C249.052 143.637 251.407 148.504 253.188 153.062C253.573 154.064 253.958 155.066 254.355 156.097C255.695 159.381 257.199 162.576 258.707 165.785C262.612 174.191 266.046 182.777 269.5 191.375C270.144 192.971 270.789 194.568 271.434 196.164C274.885 204.714 278.314 213.273 281.731 221.836C284.396 228.481 287.146 235.082 290.043 241.629C296.029 255.192 301.625 268.887 307.09 282.666C310.319 290.81 313.602 298.924 317 307C317.735 308.764 318.469 310.528 319.203 312.293C319.885 313.924 320.568 315.556 321.25 317.187C321.601 318.031 321.951 318.875 322.312 319.744C322.648 320.544 322.983 321.344 323.328 322.168C323.626 322.882 323.924 323.597 324.231 324.333C324.882 325.998 324.882 325.998 326 327C327.411 327.122 328.828 327.178 330.244 327.205C331.145 327.225 332.046 327.245 332.974 327.266C333.953 327.282 334.933 327.299 335.941 327.316C337.438 327.347 337.438 327.347 338.964 327.379C342.163 327.445 345.363 327.504 348.562 327.562C350.726 327.605 352.889 327.649 355.053 327.693C360.368 327.8 365.684 327.902 371 328C367.009 317.924 362.897 307.904 358.707 297.909C353.434 285.326 348.217 272.728 343.233 260.028C341.506 255.65 339.72 251.325 337.75 247.051C334.235 239.406 330.97 231.657 327.732 223.892C326.99 222.121 326.241 220.352 325.486 218.586C324.383 216.007 323.303 213.419 322.227 210.828C321.887 210.045 321.548 209.263 321.198 208.457C317.038 198.273 321.686 189.519 325.67 179.914C329.258 171.786 332.543 167.028 340.145 162.209C343.164 160.241 346.02 158.054 348.908 155.9C351.365 154.07 353.837 152.262 356.312 150.457C362.112 146.205 367.743 141.754 373.374 137.283C376.085 135.144 378.823 133.04 381.562 130.937C382.366 130.321 382.366 130.321 383.186 129.691C384.26 128.868 385.334 128.044 386.409 127.221C389.025 125.213 391.637 123.2 394.25 121.187C404.833 113.047 415.418 104.913 426.125 96.9373C432.027 92.5384 437.815 88.0175 443.514 83.3589C444.669 82.421 445.837 81.4984 447.015 80.5897C449.094 78.9675 449.094 78.9675 451.257 76.8787C459.776 69.5225 467.533 70.041 478.188 70.4998C479.823 70.54 481.46 70.5765 483.096 70.6092C487.066 70.6965 491.032 70.834 495 70.9998C493.61 74.2655 492.101 75.9944 489.289 78.1365C488.173 78.995 488.173 78.995 487.035 79.8709C486.24 80.4703 485.444 81.0697 484.625 81.6873C483.397 82.627 483.397 82.627 482.145 83.5857C476.849 87.6303 471.517 91.6262 466.172 95.6053C462.164 98.6311 458.208 101.721 454.25 104.812C448.544 109.269 442.806 113.674 437 118C428.931 124.013 420.999 130.197 413.067 136.389C408.065 140.286 403.03 144.139 398 148C396.379 149.246 394.758 150.493 393.137 151.741C392.047 152.579 390.957 153.417 389.867 154.255C387.194 156.31 384.523 158.368 381.855 160.429C375.296 165.495 368.689 170.49 362.043 175.442C356.723 179.42 351.498 183.512 346.34 187.699C342.216 191 342.216 191 340 191C342.754 197.778 345.511 204.555 348.27 211.331C349.207 213.632 350.143 215.933 351.078 218.235C352.429 221.56 353.782 224.883 355.137 228.207C355.548 229.222 355.96 230.237 356.384 231.283C358.765 237.115 361.282 242.863 363.912 248.588C365.173 251.384 366.292 254.212 367.355 257.09C370.175 264.542 373.247 271.88 376.332 279.226C381.172 290.757 385.966 302.301 390.561 313.932C392.487 318.785 394.568 323.539 396.77 328.273C398.36 331.798 399.85 335.358 401.312 338.937C401.579 339.577 401.846 340.217 402.122 340.876C403.464 344.204 404 346.342 404 350C372.98 350 341.96 350 310 350C304.385 337.646 304.385 337.646 302.5 332.844C302.088 331.801 301.675 330.758 301.25 329.683C300.417 327.561 299.583 325.439 298.75 323.316C298.338 322.273 297.925 321.231 297.5 320.156C297.139 319.236 296.778 318.317 296.406 317.369C295.199 314.476 293.927 311.633 292.62 308.784C290.133 303.343 287.826 297.843 285.574 292.301C285.182 291.34 284.789 290.378 284.385 289.388C283.15 286.364 281.919 283.338 280.688 280.312C279.843 278.243 278.999 276.173 278.154 274.103C276.101 269.07 274.049 264.035 272 259C271.771 259.545 271.543 260.091 271.307 260.653C270.26 263.149 269.212 265.645 268.164 268.14C267.625 269.427 267.625 269.427 267.074 270.741C265.239 275.109 263.376 279.454 261.375 283.75C259.111 288.637 257.143 293.621 255.173 298.632C253.347 303.234 251.319 307.628 249 312C248.34 312 247.68 312 247 312C236.483 287.348 236.483 287.348 231.688 275.187C229.595 269.884 227.438 264.657 225 259.5C222.339 253.869 219.956 248.148 217.625 242.375C217.267 241.496 216.908 240.618 216.539 239.713C216.209 238.887 215.879 238.061 215.539 237.211C215.242 236.471 214.945 235.732 214.639 234.97C214 233 214 233 214 230C213.34 230 212.68 230 212 230C211.822 230.552 211.645 231.103 211.462 231.672C209.714 237.019 207.772 242.242 205.637 247.445C205.322 248.218 205.008 248.991 204.684 249.787C203.688 252.234 202.688 254.68 201.688 257.125C200.702 259.54 199.718 261.956 198.734 264.372C198.088 265.957 197.442 267.541 196.795 269.126C194.264 275.332 191.779 281.556 189.317 287.79C188.029 290.929 186.64 293.996 185.188 297.062C181.038 305.87 177.48 314.931 173.844 323.96C173 326 173 326 172 328C187.18 327.67 202.36 327.34 218 327C219.65 323.04 221.3 319.08 223 315C223.99 315 224.98 315 226 315C227.65 318.915 229.295 322.832 230.938 326.75C231.406 327.861 231.875 328.972 232.357 330.117C232.805 331.187 233.253 332.257 233.715 333.359C234.129 334.344 234.542 335.328 234.969 336.343C237.291 342.325 237.291 342.325 235.625 346.187C234 349 234 349 233 350C230.078 350.095 227.18 350.125 224.258 350.113C222.882 350.114 222.882 350.114 221.479 350.114C218.432 350.113 215.386 350.105 212.34 350.097C210.234 350.096 208.128 350.094 206.022 350.093C200.467 350.089 194.912 350.08 189.357 350.068C183.693 350.058 178.029 350.054 172.365 350.049C161.243 350.038 150.122 350.021 139 350C139.788 345.733 141.117 341.9 142.766 337.898C143.041 337.221 143.316 336.544 143.6 335.846C144.183 334.415 144.768 332.985 145.355 331.555C146.238 329.405 147.114 327.251 147.988 325.097C150.837 318.108 153.776 311.183 156.941 304.329C158.385 301.153 159.668 297.937 160.938 294.687C162.897 289.712 164.934 284.782 167.062 279.875C168.904 275.613 170.666 271.341 172.312 267C177.326 253.802 182.625 240.712 188.664 227.949C190.585 223.708 192.208 219.369 193.832 215.008C195.141 211.637 196.653 208.412 198.301 205.195C200.116 199.496 198.939 195.049 196.312 189.875C194.215 185.701 192.408 181.538 190.75 177.168C187.891 169.631 184.788 162.205 181.668 154.774C172.03 131.813 172.03 131.813 167.522 120.25C166.071 116.553 164.521 112.933 162.848 109.332C158.613 100.104 154.891 90.651 151.062 81.2498C150.269 79.307 149.475 77.3643 148.682 75.4217C144.845 66.0239 141.029 56.6184 137.287 47.1824C135.905 43.7658 134.462 40.3825 133 36.9998C130.236 42.3718 127.815 47.7478 125.625 53.3748C122.07 62.3781 118.425 71.3433 114.744 80.2958C114.13 81.7898 113.517 83.2843 112.904 84.779C107.396 98.2233 107.396 98.2233 104.449 104.59C102.289 109.272 100.358 114.025 98.4618 118.82C96.3525 124.146 94.1764 129.441 91.9766 134.73C91.6231 135.581 91.2696 136.431 90.9055 137.307C89.4507 140.804 87.9942 144.301 86.5371 147.798C85.4533 150.4 84.3707 153.002 83.2891 155.605C82.7558 156.888 82.7558 156.888 82.2117 158.198C79.6777 164.315 77.2148 170.458 74.7734 176.613C72.4491 182.469 70.0266 188.235 67.3633 193.946C63.8396 201.84 60.7231 209.917 57.5 217.937C56.0114 221.634 54.5216 225.331 53.0312 229.027C52.6744 229.912 52.3176 230.798 51.95 231.71C49.347 238.16 46.6926 244.586 44 251C42.35 254.96 40.7 258.92 39 263C53.85 262.67 68.7 262.34 84 262C88.0271 254.053 88.0271 254.053 91.3555 245.972C93.3005 240.789 95.3508 235.665 97.4883 230.558C97.7958 229.824 98.1032 229.089 98.42 228.331C99.0567 226.812 99.6939 225.293 100.332 223.774C105.172 212.243 109.966 200.699 114.561 189.067C116.471 184.254 118.526 179.535 120.722 174.844C122.139 171.691 123.427 168.505 124.703 165.293C124.961 164.646 125.219 163.999 125.484 163.333C126.907 159.761 128.322 156.187 129.734 152.611C131.214 148.867 132.71 145.13 134.214 141.397C134.831 139.859 135.441 138.319 136.046 136.778C136.936 134.515 137.845 132.261 138.758 130.008C139.158 128.97 139.158 128.97 139.566 127.912C141.504 123.211 141.504 123.211 144.203 122.062C144.796 122.041 145.389 122.021 146 122C148.872 128.108 151.738 134.223 154.375 140.437C154.692 141.179 155.009 141.92 155.336 142.683C157.236 149.311 155.005 154.074 152.312 160.062C151.57 161.763 150.829 163.465 150.09 165.168C149.729 165.995 149.368 166.821 148.996 167.673C147.697 170.707 146.527 173.782 145.375 176.875C143.844 180.939 142.161 184.865 140.293 188.785C136.512 196.915 133.229 205.225 129.938 213.562C128.74 216.585 127.54 219.607 126.34 222.629C126.051 223.357 125.762 224.085 125.464 224.834C121.544 234.684 117.396 244.423 113.125 254.125C109.569 262.237 106.192 270.391 103.069 278.68C101.092 283.908 101.092 283.908 100 285C97.0781 285.095 94.1798 285.125 91.2576 285.113C89.8821 285.114 89.8821 285.114 88.4788 285.114C85.4325 285.113 82.3862 285.105 79.3398 285.097C77.2338 285.096 75.1277 285.094 73.0216 285.093C67.4666 285.089 61.9115 285.08 56.3565 285.068C50.6928 285.058 45.029 285.054 39.3652 285.049C28.2435 285.038 17.1217 285.021 6 285C7.04654 277.309 7.04654 277.309 8.45312 273.984C8.88347 272.952 8.88347 272.952 9.32251 271.9C9.78162 270.836 9.78162 270.836 10.25 269.75C10.5657 269 10.8815 268.251 11.2068 267.479C13.279 262.589 15.4606 257.755 17.6919 252.936C19.0911 249.795 20.3666 246.623 21.6289 243.426C24.0411 237.351 26.5144 231.304 29.0234 225.269C29.3767 224.419 29.73 223.57 30.0939 222.694C31.549 219.196 33.0056 215.699 34.4629 212.202C35.5467 209.6 36.6293 206.997 37.7109 204.394C38.0665 203.539 38.422 202.683 38.7883 201.802C41.3223 195.685 43.7852 189.541 46.2266 183.387C48.5444 177.549 50.9549 171.797 53.6099 166.103C57.2765 157.917 60.5549 149.556 63.9375 141.25C64.7309 139.307 65.5246 137.364 66.3184 135.422C70.9545 124.066 70.9545 124.067 75.5089 112.678C77.3448 108.041 79.2147 103.445 81.3164 98.9217C85.5189 89.8423 89.1649 80.5134 92.9375 71.2498C93.7309 69.307 94.5246 67.3643 95.3184 65.4217C99.1702 55.988 103 46.546 106.768 37.0787C110.953 26.6197 115.467 16.3111 120 5.99981Z"/>
</mask>
<path d="M120 5.99981C128.25 5.99981 136.5 5.99981 145 5.99981C146.217 8.88731 147.434 11.7748 148.688 14.7498C149.09 15.705 149.493 16.6602 149.907 17.6443C151.745 22.0069 153.571 26.3734 155.375 30.7498C156.884 34.3913 158.44 38.0086 160.035 41.6131C166.341 55.8956 172.198 70.3323 177.953 84.8433C181.884 94.7519 185.918 104.605 190.233 114.353C198.52 133.11 206.118 152.169 213.679 171.228C213.947 171.9 214.214 172.572 214.489 173.265C215.209 175.078 215.926 176.891 216.643 178.704C218.418 183.014 220.383 187.218 222.41 191.414C223.782 194.507 225.011 197.6 226.211 200.762C229.469 209.317 233.022 217.746 236.562 226.187C237.877 229.326 239.191 232.466 240.504 235.605C240.813 236.345 241.123 237.086 241.442 237.848C243.681 243.211 245.874 248.591 248 254C256.283 240.28 256.283 240.28 258.733 224.896C256.989 218.604 253.829 212.998 250.701 207.3C247.867 201.802 245.722 196.043 243.506 190.275C240.066 181.34 236.408 172.557 232.348 163.886C230.687 160.329 229.125 156.753 227.625 153.125C227.122 151.931 226.62 150.737 226.102 149.508C223.601 141.543 225.754 136.448 229.125 129.25C234.138 118.17 238.685 106.943 243.133 95.6279C246.398 87.3263 249.798 79.1687 253.599 71.0938C255.46 66.9832 257.04 62.7888 258.629 58.5667C261.425 51.2923 264.489 44.1247 267.5 36.9373C268.158 35.3638 268.815 33.7902 269.473 32.2166C270.43 29.9243 271.388 27.6323 272.348 25.341C273.757 21.9785 275.161 18.6146 276.547 15.2425C276.995 14.1531 277.444 13.0636 277.906 11.9412C278.291 11.0009 278.676 10.0606 279.072 9.09185C280 6.99981 280 6.99981 281 5.99981C283.922 5.90455 286.82 5.87428 289.742 5.88628C291.118 5.88606 291.118 5.88606 292.521 5.88584C295.568 5.88654 298.614 5.89433 301.66 5.90215C303.766 5.90402 305.872 5.90544 307.978 5.90644C313.533 5.91027 319.088 5.9201 324.643 5.93114C330.307 5.94136 335.971 5.94594 341.635 5.95098C352.757 5.96172 363.878 5.9788 375 5.99981C374.475 9.54768 373.867 12.7698 372.497 16.0865C372.041 17.2038 372.041 17.2038 371.576 18.3436C371.246 19.1312 370.917 19.9188 370.578 20.7303C370.236 21.5613 369.894 22.3924 369.542 23.2487C368.819 25.0039 368.092 26.7579 367.363 28.5108C366.262 31.1588 365.169 33.8104 364.078 36.4627C358.389 50.2525 358.389 50.2525 355.359 56.8006C352.951 62.0095 350.838 67.3241 348.727 72.6585C346.738 77.6764 344.696 82.6721 342.652 87.6678C342.078 89.0713 342.078 89.0713 341.493 90.5033C340.706 92.426 339.919 94.3485 339.132 96.271C337.935 99.1927 336.74 102.115 335.545 105.037C325.119 130.52 325.119 130.52 320.766 140.356C312.365 159.368 304.71 178.701 297 198C296.01 198 295.02 198 294 198C292.35 194.085 290.705 190.168 289.062 186.25C288.594 185.139 288.125 184.027 287.643 182.883C287.195 181.813 286.747 180.743 286.285 179.64C285.871 178.656 285.458 177.671 285.031 176.657C284.691 175.78 284.351 174.903 284 174C283.744 173.345 283.488 172.691 283.224 172.017C282.886 168.974 283.961 166.896 285.133 164.09C285.61 162.934 286.087 161.778 286.578 160.588C287.089 159.383 287.599 158.178 288.125 156.937C288.612 155.76 289.1 154.582 289.602 153.369C291.811 148.059 294.078 142.786 296.492 137.566C298.964 132.181 301.156 126.697 303.335 121.189C306.167 114.038 309.097 106.927 312.014 99.8099C313.067 97.2399 314.116 94.6687 315.166 92.0975C318.317 84.3971 321.503 76.7353 325 69.1839C326.336 66.2664 327.522 63.3013 328.688 60.3123C332.955 49.4721 337.506 38.7478 342 27.9998C326.82 28.3298 311.64 28.6598 296 28.9998C291.617 39.9774 291.617 39.9774 287.236 50.9559C282.896 61.822 278.502 72.6551 273.766 83.3558C266.09 100.728 259.077 118.377 252 136C251.601 136.925 251.201 137.849 250.79 138.802C249.052 143.637 251.407 148.504 253.188 153.062C253.573 154.064 253.958 155.066 254.355 156.097C255.695 159.381 257.199 162.576 258.707 165.785C262.612 174.191 266.046 182.777 269.5 191.375C270.144 192.971 270.789 194.568 271.434 196.164C274.885 204.714 278.314 213.273 281.731 221.836C284.396 228.481 287.146 235.082 290.043 241.629C296.029 255.192 301.625 268.887 307.09 282.666C310.319 290.81 313.602 298.924 317 307C317.735 308.764 318.469 310.528 319.203 312.293C319.885 313.924 320.568 315.556 321.25 317.187C321.601 318.031 321.951 318.875 322.312 319.744C322.648 320.544 322.983 321.344 323.328 322.168C323.626 322.882 323.924 323.597 324.231 324.333C324.882 325.998 324.882 325.998 326 327C327.411 327.122 328.828 327.178 330.244 327.205C331.145 327.225 332.046 327.245 332.974 327.266C333.953 327.282 334.933 327.299 335.941 327.316C337.438 327.347 337.438 327.347 338.964 327.379C342.163 327.445 345.363 327.504 348.562 327.562C350.726 327.605 352.889 327.649 355.053 327.693C360.368 327.8 365.684 327.902 371 328C367.009 317.924 362.897 307.904 358.707 297.909C353.434 285.326 348.217 272.728 343.233 260.028C341.506 255.65 339.72 251.325 337.75 247.051C334.235 239.406 330.97 231.657 327.732 223.892C326.99 222.121 326.241 220.352 325.486 218.586C324.383 216.007 323.303 213.419 322.227 210.828C321.887 210.045 321.548 209.263 321.198 208.457C317.038 198.273 321.686 189.519 325.67 179.914C329.258 171.786 332.543 167.028 340.145 162.209C343.164 160.241 346.02 158.054 348.908 155.9C351.365 154.07 353.837 152.262 356.312 150.457C362.112 146.205 367.743 141.754 373.374 137.283C376.085 135.144 378.823 133.04 381.562 130.937C382.366 130.321 382.366 130.321 383.186 129.691C384.26 128.868 385.334 128.044 386.409 127.221C389.025 125.213 391.637 123.2 394.25 121.187C404.833 113.047 415.418 104.913 426.125 96.9373C432.027 92.5384 437.815 88.0175 443.514 83.3589C444.669 82.421 445.837 81.4984 447.015 80.5897C449.094 78.9675 449.094 78.9675 451.257 76.8787C459.776 69.5225 467.533 70.041 478.188 70.4998C479.823 70.54 481.46 70.5765 483.096 70.6092C487.066 70.6965 491.032 70.834 495 70.9998C493.61 74.2655 492.101 75.9944 489.289 78.1365C488.173 78.995 488.173 78.995 487.035 79.8709C486.24 80.4703 485.444 81.0697 484.625 81.6873C483.397 82.627 483.397 82.627 482.145 83.5857C476.849 87.6303 471.517 91.6262 466.172 95.6053C462.164 98.6311 458.208 101.721 454.25 104.812C448.544 109.269 442.806 113.674 437 118C428.931 124.013 420.999 130.197 413.067 136.389C408.065 140.286 403.03 144.139 398 148C396.379 149.246 394.758 150.493 393.137 151.741C392.047 152.579 390.957 153.417 389.867 154.255C387.194 156.31 384.523 158.368 381.855 160.429C375.296 165.495 368.689 170.49 362.043 175.442C356.723 179.42 351.498 183.512 346.34 187.699C342.216 191 342.216 191 340 191C342.754 197.778 345.511 204.555 348.27 211.331C349.207 213.632 350.143 215.933 351.078 218.235C352.429 221.56 353.782 224.883 355.137 228.207C355.548 229.222 355.96 230.237 356.384 231.283C358.765 237.115 361.282 242.863 363.912 248.588C365.173 251.384 366.292 254.212 367.355 257.09C370.175 264.542 373.247 271.88 376.332 279.226C381.172 290.757 385.966 302.301 390.561 313.932C392.487 318.785 394.568 323.539 396.77 328.273C398.36 331.798 399.85 335.358 401.312 338.937C401.579 339.577 401.846 340.217 402.122 340.876C403.464 344.204 404 346.342 404 350C372.98 350 341.96 350 310 350C304.385 337.646 304.385 337.646 302.5 332.844C302.088 331.801 301.675 330.758 301.25 329.683C300.417 327.561 299.583 325.439 298.75 323.316C298.338 322.273 297.925 321.231 297.5 320.156C297.139 319.236 296.778 318.317 296.406 317.369C295.199 314.476 293.927 311.633 292.62 308.784C290.133 303.343 287.826 297.843 285.574 292.301C285.182 291.34 284.789 290.378 284.385 289.388C283.15 286.364 281.919 283.338 280.688 280.312C279.843 278.243 278.999 276.173 278.154 274.103C276.101 269.07 274.049 264.035 272 259C271.771 259.545 271.543 260.091 271.307 260.653C270.26 263.149 269.212 265.645 268.164 268.14C267.625 269.427 267.625 269.427 267.074 270.741C265.239 275.109 263.376 279.454 261.375 283.75C259.111 288.637 257.143 293.621 255.173 298.632C253.347 303.234 251.319 307.628 249 312C248.34 312 247.68 312 247 312C236.483 287.348 236.483 287.348 231.688 275.187C229.595 269.884 227.438 264.657 225 259.5C222.339 253.869 219.956 248.148 217.625 242.375C217.267 241.496 216.908 240.618 216.539 239.713C216.209 238.887 215.879 238.061 215.539 237.211C215.242 236.471 214.945 235.732 214.639 234.97C214 233 214 233 214 230C213.34 230 212.68 230 212 230C211.822 230.552 211.645 231.103 211.462 231.672C209.714 237.019 207.772 242.242 205.637 247.445C205.322 248.218 205.008 248.991 204.684 249.787C203.688 252.234 202.688 254.68 201.688 257.125C200.702 259.54 199.718 261.956 198.734 264.372C198.088 265.957 197.442 267.541 196.795 269.126C194.264 275.332 191.779 281.556 189.317 287.79C188.029 290.929 186.64 293.996 185.188 297.062C181.038 305.87 177.48 314.931 173.844 323.96C173 326 173 326 172 328C187.18 327.67 202.36 327.34 218 327C219.65 323.04 221.3 319.08 223 315C223.99 315 224.98 315 226 315C227.65 318.915 229.295 322.832 230.938 326.75C231.406 327.861 231.875 328.972 232.357 330.117C232.805 331.187 233.253 332.257 233.715 333.359C234.129 334.344 234.542 335.328 234.969 336.343C237.291 342.325 237.291 342.325 235.625 346.187C234 349 234 349 233 350C230.078 350.095 227.18 350.125 224.258 350.113C222.882 350.114 222.882 350.114 221.479 350.114C218.432 350.113 215.386 350.105 212.34 350.097C210.234 350.096 208.128 350.094 206.022 350.093C200.467 350.089 194.912 350.08 189.357 350.068C183.693 350.058 178.029 350.054 172.365 350.049C161.243 350.038 150.122 350.021 139 350C139.788 345.733 141.117 341.9 142.766 337.898C143.041 337.221 143.316 336.544 143.6 335.846C144.183 334.415 144.768 332.985 145.355 331.555C146.238 329.405 147.114 327.251 147.988 325.097C150.837 318.108 153.776 311.183 156.941 304.329C158.385 301.153 159.668 297.937 160.938 294.687C162.897 289.712 164.934 284.782 167.062 279.875C168.904 275.613 170.666 271.341 172.312 267C177.326 253.802 182.625 240.712 188.664 227.949C190.585 223.708 192.208 219.369 193.832 215.008C195.141 211.637 196.653 208.412 198.301 205.195C200.116 199.496 198.939 195.049 196.312 189.875C194.215 185.701 192.408 181.538 190.75 177.168C187.891 169.631 184.788 162.205 181.668 154.774C172.03 131.813 172.03 131.813 167.522 120.25C166.071 116.553 164.521 112.933 162.848 109.332C158.613 100.104 154.891 90.651 151.062 81.2498C150.269 79.307 149.475 77.3643 148.682 75.4217C144.845 66.0239 141.029 56.6184 137.287 47.1824C135.905 43.7658 134.462 40.3825 133 36.9998C130.236 42.3718 127.815 47.7478 125.625 53.3748C122.07 62.3781 118.425 71.3433 114.744 80.2958C114.13 81.7898 113.517 83.2843 112.904 84.779C107.396 98.2233 107.396 98.2233 104.449 104.59C102.289 109.272 100.358 114.025 98.4618 118.82C96.3525 124.146 94.1764 129.441 91.9766 134.73C91.6231 135.581 91.2696 136.431 90.9055 137.307C89.4507 140.804 87.9942 144.301 86.5371 147.798C85.4533 150.4 84.3707 153.002 83.2891 155.605C82.7558 156.888 82.7558 156.888 82.2117 158.198C79.6777 164.315 77.2148 170.458 74.7734 176.613C72.4491 182.469 70.0266 188.235 67.3633 193.946C63.8396 201.84 60.7231 209.917 57.5 217.937C56.0114 221.634 54.5216 225.331 53.0312 229.027C52.6744 229.912 52.3176 230.798 51.95 231.71C49.347 238.16 46.6926 244.586 44 251C42.35 254.96 40.7 258.92 39 263C53.85 262.67 68.7 262.34 84 262C88.0271 254.053 88.0271 254.053 91.3555 245.972C93.3005 240.789 95.3508 235.665 97.4883 230.558C97.7958 229.824 98.1032 229.089 98.42 228.331C99.0567 226.812 99.6939 225.293 100.332 223.774C105.172 212.243 109.966 200.699 114.561 189.067C116.471 184.254 118.526 179.535 120.722 174.844C122.139 171.691 123.427 168.505 124.703 165.293C124.961 164.646 125.219 163.999 125.484 163.333C126.907 159.761 128.322 156.187 129.734 152.611C131.214 148.867 132.71 145.13 134.214 141.397C134.831 139.859 135.441 138.319 136.046 136.778C136.936 134.515 137.845 132.261 138.758 130.008C139.158 128.97 139.158 128.97 139.566 127.912C141.504 123.211 141.504 123.211 144.203 122.062C144.796 122.041 145.389 122.021 146 122C148.872 128.108 151.738 134.223 154.375 140.437C154.692 141.179 155.009 141.92 155.336 142.683C157.236 149.311 155.005 154.074 152.312 160.062C151.57 161.763 150.829 163.465 150.09 165.168C149.729 165.995 149.368 166.821 148.996 167.673C147.697 170.707 146.527 173.782 145.375 176.875C143.844 180.939 142.161 184.865 140.293 188.785C136.512 196.915 133.229 205.225 129.938 213.562C128.74 216.585 127.54 219.607 126.34 222.629C126.051 223.357 125.762 224.085 125.464 224.834C121.544 234.684 117.396 244.423 113.125 254.125C109.569 262.237 106.192 270.391 103.069 278.68C101.092 283.908 101.092 283.908 100 285C97.0781 285.095 94.1798 285.125 91.2576 285.113C89.8821 285.114 89.8821 285.114 88.4788 285.114C85.4325 285.113 82.3862 285.105 79.3398 285.097C77.2338 285.096 75.1277 285.094 73.0216 285.093C67.4666 285.089 61.9115 285.08 56.3565 285.068C50.6928 285.058 45.029 285.054 39.3652 285.049C28.2435 285.038 17.1217 285.021 6 285C7.04654 277.309 7.04654 277.309 8.45312 273.984C8.88347 272.952 8.88347 272.952 9.32251 271.9C9.78162 270.836 9.78162 270.836 10.25 269.75C10.5657 269 10.8815 268.251 11.2068 267.479C13.279 262.589 15.4606 257.755 17.6919 252.936C19.0911 249.795 20.3666 246.623 21.6289 243.426C24.0411 237.351 26.5144 231.304 29.0234 225.269C29.3767 224.419 29.73 223.57 30.0939 222.694C31.549 219.196 33.0056 215.699 34.4629 212.202C35.5467 209.6 36.6293 206.997 37.7109 204.394C38.0665 203.539 38.422 202.683 38.7883 201.802C41.3223 195.685 43.7852 189.541 46.2266 183.387C48.5444 177.549 50.9549 171.797 53.6099 166.103C57.2765 157.917 60.5549 149.556 63.9375 141.25C64.7309 139.307 65.5246 137.364 66.3184 135.422C70.9545 124.066 70.9545 124.067 75.5089 112.678C77.3448 108.041 79.2147 103.445 81.3164 98.9217C85.5189 89.8423 89.1649 80.5134 92.9375 71.2498C93.7309 69.307 94.5246 67.3643 95.3184 65.4217C99.1702 55.988 103 46.546 106.768 37.0787C110.953 26.6197 115.467 16.3111 120 5.99981Z" fill="white"/>
<path d="M120 5.99981C128.25 5.99981 136.5 5.99981 145 5.99981C146.217 8.88731 147.434 11.7748 148.688 14.7498C149.09 15.705 149.493 16.6602 149.907 17.6443C151.745 22.0069 153.571 26.3734 155.375 30.7498C156.884 34.3913 158.44 38.0086 160.035 41.6131C166.341 55.8956 172.198 70.3323 177.953 84.8433C181.884 94.7519 185.918 104.605 190.233 114.353C198.52 133.11 206.118 152.169 213.679 171.228C213.947 171.9 214.214 172.572 214.489 173.265C215.209 175.078 215.926 176.891 216.643 178.704C218.418 183.014 220.383 187.218 222.41 191.414C223.782 194.507 225.011 197.6 226.211 200.762C229.469 209.317 233.022 217.746 236.562 226.187C237.877 229.326 239.191 232.466 240.504 235.605C240.813 236.345 241.123 237.086 241.442 237.848C243.681 243.211 245.874 248.591 248 254C256.283 240.28 256.283 240.28 258.733 224.896C256.989 218.604 253.829 212.998 250.701 207.3C247.867 201.802 245.722 196.043 243.506 190.275C240.066 181.34 236.408 172.557 232.348 163.886C230.687 160.329 229.125 156.753 227.625 153.125C227.122 151.931 226.62 150.737 226.102 149.508C223.601 141.543 225.754 136.448 229.125 129.25C234.138 118.17 238.685 106.943 243.133 95.6279C246.398 87.3263 249.798 79.1687 253.599 71.0938C255.46 66.9832 257.04 62.7888 258.629 58.5667C261.425 51.2923 264.489 44.1247 267.5 36.9373C268.158 35.3638 268.815 33.7902 269.473 32.2166C270.43 29.9243 271.388 27.6323 272.348 25.341C273.757 21.9785 275.161 18.6146 276.547 15.2425C276.995 14.1531 277.444 13.0636 277.906 11.9412C278.291 11.0009 278.676 10.0606 279.072 9.09185C280 6.99981 280 6.99981 281 5.99981C283.922 5.90455 286.82 5.87428 289.742 5.88628C291.118 5.88606 291.118 5.88606 292.521 5.88584C295.568 5.88654 298.614 5.89433 301.66 5.90215C303.766 5.90402 305.872 5.90544 307.978 5.90644C313.533 5.91027 319.088 5.9201 324.643 5.93114C330.307 5.94136 335.971 5.94594 341.635 5.95098C352.757 5.96172 363.878 5.9788 375 5.99981C374.475 9.54768 373.867 12.7698 372.497 16.0865C372.041 17.2038 372.041 17.2038 371.576 18.3436C371.246 19.1312 370.917 19.9188 370.578 20.7303C370.236 21.5613 369.894 22.3924 369.542 23.2487C368.819 25.0039 368.092 26.7579 367.363 28.5108C366.262 31.1588 365.169 33.8104 364.078 36.4627C358.389 50.2525 358.389 50.2525 355.359 56.8006C352.951 62.0095 350.838 67.3241 348.727 72.6585C346.738 77.6764 344.696 82.6721 342.652 87.6678C342.078 89.0713 342.078 89.0713 341.493 90.5033C340.706 92.426 339.919 94.3485 339.132 96.271C337.935 99.1927 336.74 102.115 335.545 105.037C325.119 130.52 325.119 130.52 320.766 140.356C312.365 159.368 304.71 178.701 297 198C296.01 198 295.02 198 294 198C292.35 194.085 290.705 190.168 289.062 186.25C288.594 185.139 288.125 184.027 287.643 182.883C287.195 181.813 286.747 180.743 286.285 179.64C285.871 178.656 285.458 177.671 285.031 176.657C284.691 175.78 284.351 174.903 284 174C283.744 173.345 283.488 172.691 283.224 172.017C282.886 168.974 283.961 166.896 285.133 164.09C285.61 162.934 286.087 161.778 286.578 160.588C287.089 159.383 287.599 158.178 288.125 156.937C288.612 155.76 289.1 154.582 289.602 153.369C291.811 148.059 294.078 142.786 296.492 137.566C298.964 132.181 301.156 126.697 303.335 121.189C306.167 114.038 309.097 106.927 312.014 99.8099C313.067 97.2399 314.116 94.6687 315.166 92.0975C318.317 84.3971 321.503 76.7353 325 69.1839C326.336 66.2664 327.522 63.3013 328.688 60.3123C332.955 49.4721 337.506 38.7478 342 27.9998C326.82 28.3298 311.64 28.6598 296 28.9998C291.617 39.9774 291.617 39.9774 287.236 50.9559C282.896 61.822 278.502 72.6551 273.766 83.3558C266.09 100.728 259.077 118.377 252 136C251.601 136.925 251.201 137.849 250.79 138.802C249.052 143.637 251.407 148.504 253.188 153.062C253.573 154.064 253.958 155.066 254.355 156.097C255.695 159.381 257.199 162.576 258.707 165.785C262.612 174.191 266.046 182.777 269.5 191.375C270.144 192.971 270.789 194.568 271.434 196.164C274.885 204.714 278.314 213.273 281.731 221.836C284.396 228.481 287.146 235.082 290.043 241.629C296.029 255.192 301.625 268.887 307.09 282.666C310.319 290.81 313.602 298.924 317 307C317.735 308.764 318.469 310.528 319.203 312.293C319.885 313.924 320.568 315.556 321.25 317.187C321.601 318.031 321.951 318.875 322.312 319.744C322.648 320.544 322.983 321.344 323.328 322.168C323.626 322.882 323.924 323.597 324.231 324.333C324.882 325.998 324.882 325.998 326 327C327.411 327.122 328.828 327.178 330.244 327.205C331.145 327.225 332.046 327.245 332.974 327.266C333.953 327.282 334.933 327.299 335.941 327.316C337.438 327.347 337.438 327.347 338.964 327.379C342.163 327.445 345.363 327.504 348.562 327.562C350.726 327.605 352.889 327.649 355.053 327.693C360.368 327.8 365.684 327.902 371 328C367.009 317.924 362.897 307.904 358.707 297.909C353.434 285.326 348.217 272.728 343.233 260.028C341.506 255.65 339.72 251.325 337.75 247.051C334.235 239.406 330.97 231.657 327.732 223.892C326.99 222.121 326.241 220.352 325.486 218.586C324.383 216.007 323.303 213.419 322.227 210.828C321.887 210.045 321.548 209.263 321.198 208.457C317.038 198.273 321.686 189.519 325.67 179.914C329.258 171.786 332.543 167.028 340.145 162.209C343.164 160.241 346.02 158.054 348.908 155.9C351.365 154.07 353.837 152.262 356.312 150.457C362.112 146.205 367.743 141.754 373.374 137.283C376.085 135.144 378.823 133.04 381.562 130.937C382.366 130.321 382.366 130.321 383.186 129.691C384.26 128.868 385.334 128.044 386.409 127.221C389.025 125.213 391.637 123.2 394.25 121.187C404.833 113.047 415.418 104.913 426.125 96.9373C432.027 92.5384 437.815 88.0175 443.514 83.3589C444.669 82.421 445.837 81.4984 447.015 80.5897C449.094 78.9675 449.094 78.9675 451.257 76.8787C459.776 69.5225 467.533 70.041 478.188 70.4998C479.823 70.54 481.46 70.5765 483.096 70.6092C487.066 70.6965 491.032 70.834 495 70.9998C493.61 74.2655 492.101 75.9944 489.289 78.1365C488.173 78.995 488.173 78.995 487.035 79.8709C486.24 80.4703 485.444 81.0697 484.625 81.6873C483.397 82.627 483.397 82.627 482.145 83.5857C476.849 87.6303 471.517 91.6262 466.172 95.6053C462.164 98.6311 458.208 101.721 454.25 104.812C448.544 109.269 442.806 113.674 437 118C428.931 124.013 420.999 130.197 413.067 136.389C408.065 140.286 403.03 144.139 398 148C396.379 149.246 394.758 150.493 393.137 151.741C392.047 152.579 390.957 153.417 389.867 154.255C387.194 156.31 384.523 158.368 381.855 160.429C375.296 165.495 368.689 170.49 362.043 175.442C356.723 179.42 351.498 183.512 346.34 187.699C342.216 191 342.216 191 340 191C342.754 197.778 345.511 204.555 348.27 211.331C349.207 213.632 350.143 215.933 351.078 218.235C352.429 221.56 353.782 224.883 355.137 228.207C355.548 229.222 355.96 230.237 356.384 231.283C358.765 237.115 361.282 242.863 363.912 248.588C365.173 251.384 366.292 254.212 367.355 257.09C370.175 264.542 373.247 271.88 376.332 279.226C381.172 290.757 385.966 302.301 390.561 313.932C392.487 318.785 394.568 323.539 396.77 328.273C398.36 331.798 399.85 335.358 401.312 338.937C401.579 339.577 401.846 340.217 402.122 340.876C403.464 344.204 404 346.342 404 350C372.98 350 341.96 350 310 350C304.385 337.646 304.385 337.646 302.5 332.844C302.088 331.801 301.675 330.758 301.25 329.683C300.417 327.561 299.583 325.439 298.75 323.316C298.338 322.273 297.925 321.231 297.5 320.156C297.139 319.236 296.778 318.317 296.406 317.369C295.199 314.476 293.927 311.633 292.62 308.784C290.133 303.343 287.826 297.843 285.574 292.301C285.182 291.34 284.789 290.378 284.385 289.388C283.15 286.364 281.919 283.338 280.688 280.312C279.843 278.243 278.999 276.173 278.154 274.103C276.101 269.07 274.049 264.035 272 259C271.771 259.545 271.543 260.091 271.307 260.653C270.26 263.149 269.212 265.645 268.164 268.14C267.625 269.427 267.625 269.427 267.074 270.741C265.239 275.109 263.376 279.454 261.375 283.75C259.111 288.637 257.143 293.621 255.173 298.632C253.347 303.234 251.319 307.628 249 312C248.34 312 247.68 312 247 312C236.483 287.348 236.483 287.348 231.688 275.187C229.595 269.884 227.438 264.657 225 259.5C222.339 253.869 219.956 248.148 217.625 242.375C217.267 241.496 216.908 240.618 216.539 239.713C216.209 238.887 215.879 238.061 215.539 237.211C215.242 236.471 214.945 235.732 214.639 234.97C214 233 214 233 214 230C213.34 230 212.68 230 212 230C211.822 230.552 211.645 231.103 211.462 231.672C209.714 237.019 207.772 242.242 205.637 247.445C205.322 248.218 205.008 248.991 204.684 249.787C203.688 252.234 202.688 254.68 201.688 257.125C200.702 259.54 199.718 261.956 198.734 264.372C198.088 265.957 197.442 267.541 196.795 269.126C194.264 275.332 191.779 281.556 189.317 287.79C188.029 290.929 186.64 293.996 185.188 297.062C181.038 305.87 177.48 314.931 173.844 323.96C173 326 173 326 172 328C187.18 327.67 202.36 327.34 218 327C219.65 323.04 221.3 319.08 223 315C223.99 315 224.98 315 226 315C227.65 318.915 229.295 322.832 230.938 326.75C231.406 327.861 231.875 328.972 232.357 330.117C232.805 331.187 233.253 332.257 233.715 333.359C234.129 334.344 234.542 335.328 234.969 336.343C237.291 342.325 237.291 342.325 235.625 346.187C234 349 234 349 233 350C230.078 350.095 227.18 350.125 224.258 350.113C222.882 350.114 222.882 350.114 221.479 350.114C218.432 350.113 215.386 350.105 212.34 350.097C210.234 350.096 208.128 350.094 206.022 350.093C200.467 350.089 194.912 350.08 189.357 350.068C183.693 350.058 178.029 350.054 172.365 350.049C161.243 350.038 150.122 350.021 139 350C139.788 345.733 141.117 341.9 142.766 337.898C143.041 337.221 143.316 336.544 143.6 335.846C144.183 334.415 144.768 332.985 145.355 331.555C146.238 329.405 147.114 327.251 147.988 325.097C150.837 318.108 153.776 311.183 156.941 304.329C158.385 301.153 159.668 297.937 160.938 294.687C162.897 289.712 164.934 284.782 167.062 279.875C168.904 275.613 170.666 271.341 172.312 267C177.326 253.802 182.625 240.712 188.664 227.949C190.585 223.708 192.208 219.369 193.832 215.008C195.141 211.637 196.653 208.412 198.301 205.195C200.116 199.496 198.939 195.049 196.312 189.875C194.215 185.701 192.408 181.538 190.75 177.168C187.891 169.631 184.788 162.205 181.668 154.774C172.03 131.813 172.03 131.813 167.522 120.25C166.071 116.553 164.521 112.933 162.848 109.332C158.613 100.104 154.891 90.651 151.062 81.2498C150.269 79.307 149.475 77.3643 148.682 75.4217C144.845 66.0239 141.029 56.6184 137.287 47.1824C135.905 43.7658 134.462 40.3825 133 36.9998C130.236 42.3718 127.815 47.7478 125.625 53.3748C122.07 62.3781 118.425 71.3433 114.744 80.2958C114.13 81.7898 113.517 83.2843 112.904 84.779C107.396 98.2233 107.396 98.2233 104.449 104.59C102.289 109.272 100.358 114.025 98.4618 118.82C96.3525 124.146 94.1764 129.441 91.9766 134.73C91.6231 135.581 91.2696 136.431 90.9055 137.307C89.4507 140.804 87.9942 144.301 86.5371 147.798C85.4533 150.4 84.3707 153.002 83.2891 155.605C82.7558 156.888 82.7558 156.888 82.2117 158.198C79.6777 164.315 77.2148 170.458 74.7734 176.613C72.4491 182.469 70.0266 188.235 67.3633 193.946C63.8396 201.84 60.7231 209.917 57.5 217.937C56.0114 221.634 54.5216 225.331 53.0312 229.027C52.6744 229.912 52.3176 230.798 51.95 231.71C49.347 238.16 46.6926 244.586 44 251C42.35 254.96 40.7 258.92 39 263C53.85 262.67 68.7 262.34 84 262C88.0271 254.053 88.0271 254.053 91.3555 245.972C93.3005 240.789 95.3508 235.665 97.4883 230.558C97.7958 229.824 98.1032 229.089 98.42 228.331C99.0567 226.812 99.6939 225.293 100.332 223.774C105.172 212.243 109.966 200.699 114.561 189.067C116.471 184.254 118.526 179.535 120.722 174.844C122.139 171.691 123.427 168.505 124.703 165.293C124.961 164.646 125.219 163.999 125.484 163.333C126.907 159.761 128.322 156.187 129.734 152.611C131.214 148.867 132.71 145.13 134.214 141.397C134.831 139.859 135.441 138.319 136.046 136.778C136.936 134.515 137.845 132.261 138.758 130.008C139.158 128.97 139.158 128.97 139.566 127.912C141.504 123.211 141.504 123.211 144.203 122.062C144.796 122.041 145.389 122.021 146 122C148.872 128.108 151.738 134.223 154.375 140.437C154.692 141.179 155.009 141.92 155.336 142.683C157.236 149.311 155.005 154.074 152.312 160.062C151.57 161.763 150.829 163.465 150.09 165.168C149.729 165.995 149.368 166.821 148.996 167.673C147.697 170.707 146.527 173.782 145.375 176.875C143.844 180.939 142.161 184.865 140.293 188.785C136.512 196.915 133.229 205.225 129.938 213.562C128.74 216.585 127.54 219.607 126.34 222.629C126.051 223.357 125.762 224.085 125.464 224.834C121.544 234.684 117.396 244.423 113.125 254.125C109.569 262.237 106.192 270.391 103.069 278.68C101.092 283.908 101.092 283.908 100 285C97.0781 285.095 94.1798 285.125 91.2576 285.113C89.8821 285.114 89.8821 285.114 88.4788 285.114C85.4325 285.113 82.3862 285.105 79.3398 285.097C77.2338 285.096 75.1277 285.094 73.0216 285.093C67.4666 285.089 61.9115 285.08 56.3565 285.068C50.6928 285.058 45.029 285.054 39.3652 285.049C28.2435 285.038 17.1217 285.021 6 285C7.04654 277.309 7.04654 277.309 8.45312 273.984C8.88347 272.952 8.88347 272.952 9.32251 271.9C9.78162 270.836 9.78162 270.836 10.25 269.75C10.5657 269 10.8815 268.251 11.2068 267.479C13.279 262.589 15.4606 257.755 17.6919 252.936C19.0911 249.795 20.3666 246.623 21.6289 243.426C24.0411 237.351 26.5144 231.304 29.0234 225.269C29.3767 224.419 29.73 223.57 30.0939 222.694C31.549 219.196 33.0056 215.699 34.4629 212.202C35.5467 209.6 36.6293 206.997 37.7109 204.394C38.0665 203.539 38.422 202.683 38.7883 201.802C41.3223 195.685 43.7852 189.541 46.2266 183.387C48.5444 177.549 50.9549 171.797 53.6099 166.103C57.2765 157.917 60.5549 149.556 63.9375 141.25C64.7309 139.307 65.5246 137.364 66.3184 135.422C70.9545 124.066 70.9545 124.067 75.5089 112.678C77.3448 108.041 79.2147 103.445 81.3164 98.9217C85.5189 89.8423 89.1649 80.5134 92.9375 71.2498C93.7309 69.307 94.5246 67.3643 95.3184 65.4217C99.1702 55.988 103 46.546 106.768 37.0787C110.953 26.6197 115.467 16.3111 120 5.99981Z" stroke="black" stroke-width="10" mask="url(#path-1-outside-1_307_8)"/>
</svg>
