<svg width="100" height="40" viewBox="0 0 100 40" fill="none" xmlns="http://www.w3.org/2000/svg">
<path d="M68.582 3.98452L68.5597 3.77026L68.2127 3.79995L68.2347 4.01401L68.582 3.98452V3.98452ZM70.9158 9.59741L70.9232 9.71558L71.167 9.69351C71.1595 9.61968 71.189 9.50151 71.2408 9.35386L71.2185 9.1396C71.1152 9.14702 71.0117 9.3021 70.9158 9.59741ZM61.8093 16.6654C61.7947 16.466 61.1742 15.6906 59.9482 14.3242C59.9261 14.0732 60.347 13.6964 61.2111 13.2017L63.6779 11.0525C64.2318 10.3507 64.5568 9.21343 64.6529 7.63296L64.6232 7.27104C64.5273 6.17808 63.7371 5.29917 62.2379 4.6271C61.3515 4.02886 59.7562 3.69644 57.4519 3.63745C55.5465 3.79995 53.0576 4.47925 49.9926 5.68315C49.1506 6.28882 48.1906 6.89448 47.1123 7.49995L47.1269 7.68472C47.1935 7.67729 47.2969 7.64038 47.415 7.55913C47.5406 7.54429 47.6144 7.60347 47.6219 7.72163L47.8064 7.62554L47.8951 7.61811L47.9025 7.69936C47.9099 7.79546 47.2451 8.31987 45.901 9.25776L46.0045 9.44976L45.9158 9.45718L45.6941 9.37593C45.7015 9.44233 45.6056 9.48667 45.4209 9.50151L45.4283 9.58276L45.6426 9.84858C45.5761 9.85601 45.4726 9.82651 45.3324 9.77476C45.022 9.80425 44.7193 9.96675 44.4166 10.2769L44.5422 9.73042C44.9926 7.78804 45.3027 6.06714 45.4652 4.57534L45.4431 4.47925C45.133 4.27983 44.8301 3.99917 44.5494 3.64468C44.5568 3.41577 44.5568 3.28296 44.5494 3.25327L44.5273 3.17202L44.4386 3.19429C43.4638 4.65659 41.5879 7.15288 38.8035 10.6832C36.684 13.1943 35.5908 14.5902 35.5244 14.8708C34.6603 15.7644 34.2467 16.3037 34.291 16.4882C34.0621 16.6359 33.966 16.7835 34.0029 16.946C33.9365 16.9609 33.8922 16.9388 33.8773 16.8722C33.5082 17.4705 32.9615 17.8544 32.2304 18.0244L31.4623 18.2017C31.359 18.2238 31.3072 18.2976 31.3146 18.4232L31.3367 18.5193L31.6248 18.4527L31.647 18.5339L30.997 18.7851L29.8449 19.0509L29.2392 19.0878C29.1506 19.1765 29.7193 19.0806 29.4978 19.1322L28.7445 19.3095C28.2865 19.4128 28.0355 19.3759 27.9912 19.1914L27.9025 19.2134C27.9174 19.2947 27.9246 19.3539 27.9099 19.4054L27.8656 19.2208L27.2599 19.3611C27.2156 19.0806 26.3959 18.0613 24.808 16.3037C24.7785 15.9638 25.3396 15.4689 26.4845 14.8265L29.7193 11.983C30.4431 11.0525 30.8715 9.5605 31.0119 7.50737L30.9676 7.0273C30.842 5.57983 29.7931 4.41284 27.8213 3.51187C26.6543 2.72163 24.5568 2.30054 21.5289 2.23413C19.0177 2.44839 15.7385 3.34194 11.706 4.90034C10.5982 5.70522 9.33533 6.50288 7.91736 7.29312L7.93943 7.54429C8.03552 7.53687 8.16091 7.4853 8.31599 7.39663C8.47849 7.38179 8.56716 7.45562 8.58201 7.60347L8.83298 7.46304L8.95857 7.45562L8.96599 7.57378C8.97341 7.69194 8.09451 8.37886 6.31462 9.63433L6.45486 9.85601L6.32947 9.86343L6.05603 9.76733C6.06345 9.84116 5.93787 9.89292 5.67947 9.91499L5.69412 10.048L5.98962 10.373C5.89373 10.3804 5.76072 10.3507 5.5908 10.2917C5.01482 10.3435 4.45349 10.757 3.89958 11.54L4.03982 11.7615C4.5199 11.3183 4.80056 11.0968 4.88181 11.0894L4.9113 11.4513C4.83005 11.4587 4.70447 11.5103 4.53474 11.599L4.83748 12.057C5.40937 11.4388 6.05708 10.8953 6.76521 10.4394C7.11228 10.5281 7.29685 10.6388 7.30427 10.757L7.57009 10.7349C9.47556 9.32417 11.359 8.30503 13.2275 7.67729L13.2496 7.92827C12.9025 8.44526 12.6662 8.71128 12.5406 8.72593C12.5554 8.90327 12.6144 9.05835 12.7252 9.19136C12.7549 9.50894 11.9054 11.6507 10.1845 15.6093C6.27771 24.8117 2.99841 31.621 0.332397 36.023C0.339624 36.1115 0.391382 36.2296 0.487476 36.3775C1.1447 36.2224 1.55837 36.0599 1.73552 35.9046L1.87595 35.89L1.89802 36.1412L2.14177 36.1189L2.39294 35.9787C2.40037 36.0525 2.48162 36.0894 2.65134 36.0746L2.67361 36.3257C2.69568 36.5695 2.55544 36.9386 2.25994 37.4484C1.99412 37.7511 1.70603 38.3863 1.4033 39.3539L1.41052 39.472L1.65427 39.4498C2.71794 38.2607 3.52283 37.0937 4.07673 35.9564C7.17869 35.048 9.54216 34.1544 11.1816 33.2755C12.8287 33.1351 14.0842 32.6994 14.941 31.983L14.9261 31.8501L14.3058 32.0347L14.1654 32.0496L14.1506 31.9166C15.3619 31.732 16.1965 31.466 16.6617 31.0968C19.0177 29.2798 20.7976 27.9949 22.0015 27.2341C24.4756 25.4173 26.0857 23.6447 26.8168 21.924C26.9551 21.8938 27.093 21.8618 27.2304 21.8279C27.5775 21.8132 27.7695 21.8058 27.8213 21.791C27.8064 21.7246 27.8361 21.6876 27.9025 21.6728C28.4564 21.6138 28.1906 21.7097 28.5451 21.6285L29.4756 21.4144C29.4166 21.4291 29.3943 21.4587 29.4092 21.5177L29.5494 21.4291C29.5199 21.4291 29.4978 21.4218 29.4756 21.4144L29.6306 21.3775L29.5568 21.4218C29.6603 21.4365 29.7711 21.4291 29.8967 21.3996L29.9631 21.6728L25.7312 28.4011L24.7931 29.5753L24.3353 31.1115L24.424 31.0894L24.8818 30.8974L24.7342 31.4957L24.7785 31.6728L24.9039 31.8279C24.8449 31.8427 24.8228 31.8796 24.8375 31.946L24.8597 32.0421L25.0517 31.9978C25.3324 31.7541 25.4506 31.5326 25.4062 31.3332C25.709 31.3847 25.9084 31.407 26.0119 31.3775L26.034 31.4734C25.8494 31.5177 25.7533 31.6654 25.7385 31.9166L25.7607 32.0126L25.864 31.9904C27.4004 30.3138 31.167 24.5753 34.1877 20.6832C34.0916 20.2623 35.6646 19.6787 38.9142 18.9253L39.0177 18.9033C39.1359 19.4128 38.8847 20.6462 38.2644 22.6035C37.8656 23.7851 37.6736 24.4351 37.7031 24.5384C37.1861 26.1115 36.9424 26.9609 36.9719 27.0939L35.8197 30.8677C35.0738 32.8029 34.5052 34.8339 34.1064 36.9757C34.1728 36.9609 34.2761 36.9683 34.424 37.0052L34.5863 36.8648C34.6011 36.9314 34.6455 36.9535 34.7119 36.9386L34.6455 36.6654L35.1476 36.6507C35.2953 36.6138 35.4209 36.4291 35.5244 36.0894C35.5021 35.5798 35.6056 35.3066 35.8345 35.2474C36.1447 34.0363 36.3367 33.4306 36.4033 33.4084C36.6912 32.2046 36.9054 31.5177 37.0457 31.3478C37.4816 29.7822 37.799 28.9771 38.0058 28.9253L38.0502 29.1175L37.7326 29.9373C37.1787 32.3966 36.6174 34.339 36.0488 35.7644L36.2113 36.4734L36.3146 36.4513C37.6883 33.497 39.6676 27.6478 42.2451 18.9033C42.3191 18.1351 42.6883 17.5369 43.3457 17.116L43.1978 16.9609L43.1758 16.8796C43.4713 16.8132 43.6779 16.6951 43.7961 16.5326C43.7814 16.466 43.5228 16.3701 43.0207 16.2371L44.3058 10.7275C44.5863 10.4763 44.7488 10.3435 44.8006 10.3435L44.8228 10.6242C44.7562 10.6314 44.6529 10.6683 44.5347 10.7496L44.7785 11.0968C45.2215 10.6167 45.7015 10.2031 46.226 9.85601C46.4918 9.92983 46.6248 10.0185 46.6396 10.1072L46.8316 10.0923C48.2939 9.02144 49.7267 8.25327 51.1373 7.78804L51.1521 7.97261C50.8937 8.36401 50.7164 8.56343 50.6203 8.57085C50.6351 8.70386 50.672 8.82202 50.7385 8.92534C50.7607 9.16909 50.1256 10.7939 48.8258 13.8072C45.8566 20.7865 43.3678 25.949 41.3441 29.3021C41.3515 29.3685 41.3959 29.4572 41.4771 29.5753C41.9719 29.4572 42.2894 29.3316 42.415 29.2134L42.5037 29.206L42.5185 29.3908L42.7252 29.3759L42.9099 29.2798C42.9172 29.3316 42.9838 29.3539 43.1094 29.3464L43.124 29.5459C43.1388 29.723 43.0355 30.0037 42.8064 30.3876C42.5924 30.6167 42.3707 31.0968 42.1344 31.8279L42.1418 31.924L42.3338 31.9091C43.1388 31.0082 43.7517 30.1218 44.1728 29.2503C46.5287 28.5562 48.3234 27.8841 49.5642 27.2193C50.8271 27.1085 51.7799 26.7835 52.4299 26.2371L52.4224 26.1412L51.9424 26.2814L51.839 26.2888L51.8316 26.1927C52.7474 26.0599 53.39 25.8531 53.7371 25.5798C55.5244 24.206 56.876 23.2238 57.7918 22.6478C60.6426 20.5724 61.9718 18.5783 61.8093 16.6654V16.6654ZM61.322 16.791L61.3885 17.5369C61.2998 17.7216 61.2039 17.8175 61.1152 17.825L61.0045 16.5546C61.2111 16.6285 61.3146 16.7023 61.322 16.791V16.791ZM5.3988 10.7792L5.27322 10.7865L5.25115 10.5576L5.76072 10.5132L5.76814 10.6314C5.68689 10.6388 5.5613 10.6832 5.3988 10.7792V10.7792ZM2.90994 35.6757C2.61443 35.5429 2.34861 35.4912 2.1197 35.5132L2.09001 35.1513C2.07537 35.0111 2.15662 34.915 2.33376 34.8781C2.49626 34.8634 2.59236 34.9816 2.60701 35.2179C3.03552 34.6935 3.27185 34.4277 3.31619 34.4203L3.58943 34.531C3.50076 35.2697 3.27185 35.6462 2.90994 35.6757V35.6757ZM29.5053 7.85444C29.3797 7.86929 29.1285 7.47788 28.7666 6.70229L28.7445 6.47339C28.9808 6.45132 29.2246 6.8353 29.483 7.62554L29.5053 7.85444V7.85444ZM29.1506 5.09976L29.0472 5.34351L25.4357 3.83687C27.8433 3.91812 29.0842 4.33901 29.1506 5.09976ZM13.8996 18.1943L13.39 18.2386L13.3677 18.0095L13.8773 17.9654L13.8996 18.1943ZM13.4859 10.3287L13.6115 10.3212L13.641 10.6832C13.5228 10.6906 13.3677 10.8677 13.1758 11.2076L13.1535 10.9564C13.3826 10.6832 13.5008 10.4763 13.4859 10.3287V10.3287ZM12.415 12.8544L12.4594 13.3345L12.3338 13.3419L12.2894 12.8619L12.415 12.8544V12.8544ZM11.8537 13.7556L12.0974 13.7333C12.0754 14.1322 11.9646 14.3464 11.7652 14.3611L11.6396 14.3685C11.7947 14.1027 11.8685 13.8958 11.8537 13.7556V13.7556ZM11.4328 15.0111L11.573 14.9962L11.5804 15.1144L11.3515 15.4986L11.1078 15.5207L11.1004 15.4025C11.3441 15.3804 11.4549 15.2548 11.4328 15.0111V15.0111ZM11.0191 16.1412L10.9453 16.7466L10.8197 16.7541L10.7681 16.1558L11.0191 16.1412V16.1412ZM6.87595 27.921C6.71345 28.7482 6.53611 29.1691 6.35154 29.1839L6.34412 29.0658C6.29978 28.6595 6.47712 28.2755 6.87595 27.921V27.921ZM6.11521 29.5679L6.12263 29.6861C6.13728 29.8486 6.06345 29.9447 5.90095 29.9519L5.89373 29.8337C5.87888 29.6935 5.95271 29.6048 6.11521 29.5679ZM5.89373 32.9875L6.27771 32.9505L6.29236 33.0835C6.19646 33.0908 6.07087 33.1425 5.9158 33.2312L5.67205 33.2533C5.6572 33.1279 5.73845 33.0318 5.89353 32.9875H5.89373V32.9875ZM16.8242 29.6123C14.6676 30.6757 13.3972 31.3996 13.0207 31.7761C10.6869 32.5886 9.52732 33.0908 9.54939 33.2902C7.47419 34.1101 6.10779 34.7158 5.45056 35.0923C5.29548 35.1072 5.0738 35.048 4.77849 34.915C4.74158 34.4941 4.93357 34.1544 5.33962 33.8812C5.70154 33.8515 6.04861 33.9033 6.38103 34.0435C6.76521 33.8441 7.43728 33.6226 8.39001 33.3863L8.36775 33.1351L7.59978 33.2017C7.69568 33.0687 8.43416 32.7216 9.82263 32.1603L10.2068 32.1234L10.2142 32.2416C9.55681 32.3005 9.1949 32.4927 9.11365 32.8398C9.12849 32.9949 9.21716 33.0613 9.37966 33.0466C9.87439 32.7363 10.1181 32.5517 10.1107 32.5C11.0488 32.3228 13.641 30.9638 17.8877 28.4306L17.9099 28.6595C17.9174 28.7703 17.5554 29.0804 16.8242 29.6123V29.6123ZM10.3101 31.7541C10.9306 31.7023 11.4623 31.4513 11.9054 31.0156C12.0826 31.0007 12.1787 31.0671 12.1861 31.2222C11.8832 31.2519 11.2998 31.5029 10.4506 31.9904L10.325 31.9978L10.3101 31.7541ZM20.8197 23.6816L17.5627 26.2593C15.1402 27.8472 13.8404 28.6447 13.6558 28.6595C9.80056 30.7793 7.40037 31.8796 6.4697 31.9609L6.32947 31.9755C6.44763 31.54 8.16091 28.0318 11.4845 21.4291C12.9469 21.3035 15.2511 20.6242 18.39 19.3833L19.158 19.3167C20.7459 19.1765 21.9349 19.4867 22.7179 20.2253L22.7621 20.7052C22.1713 22.4041 21.5215 23.3937 20.8197 23.6816V23.6816ZM14.4535 20.0998L14.9779 20.0554L14.9851 20.1736L14.4609 20.2179L14.4535 20.0998V20.0998ZM21.8168 18.8515L22.201 18.8146C22.5554 18.9845 22.74 19.1322 22.7549 19.2652L22.7621 19.3833C22.4224 19.4128 22.1049 19.2357 21.8168 18.8515V18.8515ZM22.8582 12.921C22.5185 13.3271 21.5879 14.0214 20.0664 14.9962C19.5642 15.0406 17.6957 15.7644 14.4609 17.1824C14.2992 17.1085 14.121 17.078 13.9439 17.0939L13.9217 16.8648C13.8847 16.3996 14.0916 15.8162 14.5494 15.1072C14.8006 13.7777 15.0738 13.0169 15.3767 12.8324L18.0724 6.7689C18.0427 6.39214 18.6189 6.10405 19.8006 5.90464L20.1845 5.86772L20.2142 6.21499C21.3736 6.03765 22.0974 5.93433 22.3781 5.91206C24.5199 5.72749 25.6351 6.16323 25.7238 7.20464L25.9676 7.18237L25.9158 6.56948L26.1816 6.54722C26.8094 6.89448 27.1492 7.31538 27.1935 7.81011C27.223 8.14995 27.0385 8.57085 26.6469 9.07319C26.4845 9.08784 26.3885 8.96968 26.3736 8.73335L26.1078 8.75561L26.0488 9.49409C24.9631 11.1189 24.1728 11.9535 23.6853 11.9978C23.2422 12.6109 22.9689 12.9136 22.8582 12.921ZM24.5125 17.1677C24.291 17.0199 24.1136 16.9535 23.9808 16.9609L23.9511 16.599L24.1949 16.5769L24.7342 16.8945C24.7562 17.0642 24.6824 17.1529 24.5125 17.1677V17.1677ZM26.226 19.1986C26.4623 19.2947 26.6027 19.398 26.6322 19.4941L26.514 19.5236L26.5215 19.531C26.4992 19.531 26.4697 19.5384 26.4474 19.5458L26.2703 19.6861L26.226 19.1986V19.1986ZM26.3885 20.2179L26.3664 20.1218L26.6765 20.048L26.6986 20.1441L26.3885 20.2179ZM27.1344 21.0525C27.4519 21.0007 27.607 20.9787 28.1978 20.8457L28.2201 20.9417L27.0974 21.2001C27.1123 21.1484 27.1269 21.0968 27.1344 21.0525ZM28.2275 21.5177C27.7549 21.5621 27.8582 21.5029 27.1049 21.6728L27.0826 21.5769L28.0207 21.274L28.4713 21.1707L28.5154 21.3478C28.316 21.3921 28.4638 21.3921 28.2275 21.5177ZM29.2246 21.2814C29.1136 21.3109 29.0252 21.2593 28.9734 21.1337L29.2615 21.0671C29.3869 21.0376 29.4681 21.0894 29.4978 21.215L29.2246 21.2814V21.2814ZM31.9275 18.3714L31.9054 18.2755L32.3707 18.1648L32.415 18.3419L31.9275 18.3714ZM34.8154 36.082C34.8449 35.949 34.8523 35.8531 34.8375 35.7865L34.941 35.7644C35.0664 35.7349 35.1402 35.7792 35.1699 35.8974L35.192 35.9933L34.8154 36.082V36.082ZM36.839 19.1322L36.6322 19.0953C36.2998 19.2283 36.0191 19.3242 35.7902 19.3759L35.5982 19.4203C35.4875 19.4498 35.3988 19.4054 35.3545 19.2873L36.706 18.9771L37.1492 18.7703L37.2969 18.9402C37.0826 18.9845 36.9275 19.0509 36.839 19.1322V19.1322ZM37.8803 18.7998L37.8582 18.7039C37.9246 18.689 38.0133 18.6375 38.1094 18.5414L39.0693 18.3199L39.0916 18.4158C38.582 18.5414 38.1758 18.6669 37.8803 18.7998ZM38.0281 16.8574C37.9615 16.8722 37.873 16.9314 37.7621 17.0199C37.7474 16.9535 37.6144 16.9535 37.3633 17.0126C37.3191 16.8279 38.0281 16.5695 39.4978 16.2296L39.7045 16.1853L39.7488 16.3626C38.7148 16.6654 38.1388 16.8353 38.0281 16.8574V16.8574ZM40.6131 14.0658C40.5095 15.24 40.0961 15.9048 39.3648 16.0746L39.3427 15.9787L38.6927 16.2296L38.4047 16.2962C38.257 16.3332 38.124 16.3257 38.0058 16.2888L37.9469 16.0302C37.9246 15.9343 38.8627 14.6343 40.7681 12.138L40.9896 12.1751C41.0709 12.5148 40.9453 13.1425 40.6131 14.0658ZM45.1845 10.1513L45.0961 10.1587L45.0812 9.97417L45.4652 9.93726L45.4726 10.0332C45.4062 10.048 45.3101 10.0849 45.1845 10.1513V10.1513ZM43.3013 29.0658C43.0797 28.9623 42.8802 28.9181 42.7105 28.9328L42.6883 28.6521C42.6808 28.5562 42.74 28.4896 42.8656 28.4527C42.9912 28.438 43.065 28.5265 43.0797 28.7187C43.3972 28.3125 43.5746 28.1056 43.6115 28.1056L43.8109 28.1869C43.7371 28.7482 43.5672 29.0435 43.3013 29.0658V29.0658ZM63.4933 7.94311C63.3972 7.95054 63.2127 7.65503 62.9246 7.05679L62.9099 6.87222C63.0945 6.85737 63.2865 7.14546 63.4785 7.73628L63.4933 7.94311V7.94311ZM63.2275 5.83081L63.1388 6.0228L60.4062 4.87808C62.2304 4.93726 63.1758 5.25483 63.2275 5.83081ZM51.6396 15.7792L51.2554 15.8162L51.2408 15.6314L51.6248 15.6019L51.6396 15.7792V15.7792ZM51.322 9.80425L51.4254 9.79683L51.4474 10.0775C51.3515 10.0849 51.2334 10.2179 51.0929 10.4763L51.0783 10.2917C51.2482 10.0775 51.3293 9.91499 51.322 9.80425ZM50.517 11.7246L50.5465 12.0865L50.4431 12.0939L50.4135 11.732L50.517 11.7246ZM50.0812 12.4115L50.2732 12.3966C50.2511 12.7068 50.1699 12.8693 50.0295 12.8841L49.9261 12.8914C50.0369 12.6847 50.0886 12.5222 50.0812 12.4115ZM49.7711 13.3568L49.8597 13.3494L49.867 13.4453L49.6972 13.7408L49.5051 13.7556L49.4978 13.6595C49.6972 13.6447 49.7857 13.5414 49.7711 13.3568ZM49.4609 14.2134L49.3943 14.6861L49.3056 14.6935L49.2687 14.2283L49.4609 14.2134ZM46.3072 23.172C46.1816 23.7925 46.0488 24.1101 45.9084 24.1248L45.901 24.0435C45.8789 23.7333 46.0117 23.438 46.3072 23.172ZM45.7238 24.4203L45.731 24.5015C45.7459 24.6343 45.6869 24.7083 45.5539 24.7156L45.5465 24.6197C45.539 24.5236 45.5982 24.4572 45.7238 24.4203V24.4203ZM45.5613 27.0199L45.8566 26.9978L45.864 27.0937C45.7976 27.1011 45.6941 27.138 45.576 27.2046L45.384 27.2193C45.3765 27.116 45.4357 27.0496 45.5613 27.0199V27.0199ZM53.8553 24.4572C52.2304 25.2623 51.2629 25.8087 50.9601 26.0894C49.1875 26.7097 48.3088 27.0939 48.3234 27.249C46.7504 27.8767 45.7164 28.3271 45.2289 28.6152C45.1107 28.6226 44.9408 28.5783 44.7193 28.475C44.6898 28.1574 44.8375 27.8988 45.1476 27.7068C45.4283 27.6847 45.6941 27.7216 45.9379 27.825C46.2334 27.6773 46.7429 27.5148 47.4668 27.3302L47.4519 27.1455L46.8463 27.1898C46.9203 27.0865 47.4888 26.8205 48.5451 26.3921L48.8404 26.3701L48.8478 26.4513C48.3457 26.4957 48.065 26.6433 48.0058 26.9091C48.0133 27.0273 48.0871 27.0865 48.2127 27.0716C48.582 26.8279 48.7592 26.6876 48.7592 26.6433C49.4681 26.5177 51.4328 25.4837 54.6603 23.5488L54.675 23.7333C54.6824 23.8146 54.4092 24.0509 53.8553 24.4572V24.4572ZM48.907 26.082C49.3869 26.0376 49.7931 25.8531 50.133 25.5281C50.2584 25.5132 50.3324 25.5724 50.3396 25.6906C50.1181 25.7126 49.6824 25.8974 49.025 26.2519L48.9217 26.2593L48.907 26.082V26.082ZM56.898 19.9447L54.4387 21.924C52.5996 23.1277 51.6027 23.7333 51.4474 23.7482C48.5228 25.3582 46.706 26.1927 45.9896 26.2519L45.8863 26.2593C45.9748 25.9269 47.2822 23.2607 49.808 18.2533C50.9084 18.1574 52.6513 17.633 55.0443 16.6876L55.6426 16.6359C56.8463 16.5326 57.7474 16.7689 58.3383 17.3375L58.3677 17.6994C57.9172 18.9697 57.4299 19.7156 56.898 19.9447V19.9447ZM52.0679 17.2267L52.4519 17.1898L52.4594 17.2859L52.0754 17.3228L52.0679 17.2267ZM57.6588 16.274L57.9543 16.2519C58.2275 16.3847 58.3678 16.5031 58.3752 16.599L58.3826 16.6802C58.124 16.7023 57.8803 16.5695 57.6588 16.274V16.274ZM58.4342 11.7763C58.1758 12.0865 57.4742 12.6181 56.3295 13.3568C55.9453 13.3937 54.5273 13.9402 52.0754 15.0037C51.9572 14.9593 51.8242 14.9447 51.6838 14.9521L51.6691 14.7673C51.6396 14.4128 51.7947 13.9697 52.1344 13.4306C52.3263 12.4115 52.5406 11.8427 52.7621 11.7097L54.8226 7.10112C54.8006 6.82788 55.2363 6.6064 56.1226 6.43647L56.4179 6.4144L56.4402 6.69507C57.3117 6.55464 57.8582 6.47339 58.0797 6.45132C59.7045 6.31089 60.5539 6.63589 60.6203 7.43354L60.8123 7.4187L60.7754 6.97554L60.9676 6.96089C61.4402 7.21929 61.6912 7.52964 61.7209 7.89878C61.7429 8.16479 61.6099 8.4896 61.3293 8.86636C61.2039 8.88101 61.1301 8.79253 61.1152 8.60054L60.9232 8.61518L60.864 9.16909C60.0443 10.4173 59.4461 11.0599 59.0693 11.0894C58.7371 11.54 58.5303 11.7689 58.4342 11.7763V11.7763ZM59.2984 14.8486L59.2761 14.5679L59.4681 14.5533L59.8818 14.8042C59.8892 14.9224 59.8301 14.989 59.7045 15.0037C59.5273 14.8929 59.3943 14.8412 59.2984 14.8486ZM24.9187 32.788L24.7267 32.8324L24.5642 32.9726C24.5937 33.0908 24.6676 33.1351 24.7931 33.1056C24.9187 33.0761 24.9705 33.0023 24.941 32.8841L24.9187 32.788V32.788ZM24.1877 31.3332L24.2097 31.4291C24.3353 31.3996 24.3869 31.3257 24.3574 31.2076L24.3353 31.1115C24.2172 31.1412 24.1654 31.215 24.1877 31.3332V31.3332ZM29.3869 18.9623L29.6086 18.9107L29.5642 18.7187L29.3427 18.7703L29.3869 18.9623ZM96.4033 24.5902C94.158 25.0923 93.8773 25.0037 93.4047 25.0406L93.4195 25.2253L93.6263 25.2105L93.7371 25.2031L93.7076 25.181L93.9511 25.0849C96.1742 24.8412 96.4328 24.9298 96.4105 24.6787L96.4033 24.5902V24.5902ZM84.3131 26.1927L84.3279 26.3775H84.3574L84.3427 26.1927H84.3131V26.1927ZM82.9246 21.3257L82.7252 21.2593C82.5627 21.6951 82.4814 21.9535 82.4888 22.0273L82.4963 22.1085C82.6513 22.1011 82.7918 21.8353 82.9246 21.3257ZM96.8611 24.5533L96.876 24.7378L97.2008 24.7968L97.1861 24.6123L96.8611 24.5533V24.5533ZM81.5804 26.4216L81.0783 26.3626L80.9896 26.5546L80.997 26.6507L83.9881 26.3996L83.9734 26.215L81.5804 26.4216ZM80.2215 19.8709L80.2142 19.7748L80.1107 19.7822L79.9261 19.9003L80.0295 20.0775C80.1699 20.0628 80.2363 19.9962 80.2215 19.8709V19.8709ZM98.2791 23.1943L98.4195 23.1794C98.5008 23.172 98.5377 23.1056 98.5303 22.9875L98.449 22.8101C97.9394 22.8544 97.7031 22.8767 97.2894 23.1056L97.282 23.0097L96.6691 23.0687C96.6543 22.8841 96.6027 22.788 96.5215 22.7955L96.2039 22.825C95.8345 22.8544 95.6572 22.8398 95.4726 22.98C95.4652 22.9136 95.4431 22.8841 95.4062 22.8841L95.0517 22.9136L94.8449 23.0318C94.8375 22.9654 94.8154 22.9357 94.7783 22.9357L94.6529 23.0466L94.6455 22.9505L94.1506 22.9136L94.0324 22.921L94.0472 23.1056L94.2984 23.172L94.5347 23.1574C94.616 23.2091 94.7045 23.2238 94.808 23.2164L95.0148 23.113L95.022 23.1943C93.8627 23.4824 93.8699 23.4306 93.0722 23.5636C92.9838 23.5044 92.9172 23.475 92.8728 23.4824L92.8582 23.497C92.7695 23.4896 92.7178 23.4306 92.7105 23.3345L93.124 23.283C93.1535 23.283 93.1758 23.3125 93.4047 23.3568C93.7371 23.1943 93.7517 23.1277 93.9291 23.113L93.9142 22.9283C92.7769 23.15 93.2347 23.0023 91.8094 23.1277L91.7429 23.1351L91.7281 22.9505C93.5597 22.7291 92.9468 22.8544 93.5746 22.6773C93.582 22.7437 93.6041 22.7732 93.641 22.7732C93.7083 22.7044 93.7968 22.6603 93.8922 22.6478L94.0178 22.6404C94.6601 22.5886 94.8744 22.7142 96.1447 22.3597L96.1521 22.441L96.359 22.3375L96.551 22.3228C96.5361 22.138 96.8168 22.1085 96.9129 22.1011L96.898 21.9017C94.6676 22.3523 94.0842 22.2267 93.4638 22.4041L93.4564 22.3228C92.873 22.4261 92.8508 22.3818 92.7031 22.3892C92.6588 22.3966 92.5924 22.4335 92.5183 22.5074C92.5111 22.441 92.4888 22.4113 92.4445 22.4113C92.4224 22.4113 92.415 22.4187 92.4076 22.4187L90.517 22.7289C90.5095 22.6773 90.4875 22.6478 90.4431 22.655C89.4609 22.8619 89.7267 22.8988 88.4121 23.0169C88.3529 23.0244 88.2719 23.0539 88.1683 23.1205C88.1609 23.0687 88.1314 23.0392 88.065 23.0464L87.2599 23.113L86.7209 23.2458C86.7135 23.1943 86.684 23.1648 86.6174 23.172C86.3146 23.2533 86.0488 23.305 85.8345 23.3199H85.8197C85.6869 23.3345 85.8863 23.283 85.7828 23.2386L85.6203 23.3345C85.384 23.3568 85.5095 23.3199 84.6972 23.3271C83.2719 23.5044 83.4269 23.5265 83.2718 23.5339L82.74 23.497C82.7474 23.5488 82.7179 23.5857 82.6588 23.5857C82.0531 23.5044 81.7429 23.4083 81.7355 23.2976C81.8168 22.7216 81.9572 22.4261 82.1566 22.4113L82.2599 22.4041L82.1713 22.596L82.2748 22.5886C82.4668 22.4853 82.5554 22.3892 82.548 22.3005L82.5332 22.1011L82.3412 22.116L82.3263 21.9314C82.3117 21.791 82.3338 21.6654 82.3855 21.5621L82.8213 20.8605L82.8361 21.0451L83.0427 21.0302L83.0281 20.8457L82.9099 20.6757C83.065 20.5429 83.1832 20.4689 83.2791 20.4617L83.2718 20.3656L82.9912 20.3878L82.9689 20.1072C83.5302 18.9402 83.7961 18.2607 83.7814 18.0687L83.9808 18.15C84.1064 18.1425 84.1654 18.0687 84.158 17.9357L83.966 17.9505L83.9586 17.8693C83.9451 17.7344 83.9707 17.5986 84.0324 17.4779C84.3353 17.1603 84.4756 16.8427 84.4461 16.5103C84.5053 16.5029 84.5347 16.5326 84.5422 16.599C84.8006 16.4513 85 16.0599 85.1476 15.4099C85.6056 14.5828 86.2554 12.9285 87.1049 10.4542C88.7297 6.08198 88.6633 5.61675 88.8922 4.58276L88.7002 4.59741C88.7148 4.73042 88.6853 4.85601 88.6263 4.97417C88.4933 4.92241 88.39 4.89292 88.3162 4.90034L88.3088 4.81909C88.2791 4.44233 88.4344 3.99194 88.7888 3.46011L88.8773 3.45269L89.0398 4.08784L89.2318 4.07319C89.2246 4.02886 89.2761 3.77769 89.3797 3.31245C89.3722 3.21636 89.2984 3.15737 89.1506 3.14995L88.966 3.26812C88.9513 3.13511 88.9586 2.78804 88.9808 2.23413L88.8847 2.24155C88.7222 2.07905 88.641 1.94604 88.6336 1.8353L87.5775 1.93862C87.5701 1.86479 87.5332 1.75405 87.4593 1.61382C87.4519 1.51772 87.6883 1.42163 88.1758 1.32573L88.39 1.40698L88.5894 1.28882C88.5967 1.35522 88.6336 1.38472 88.7074 1.37749L88.9068 1.25933C88.9142 1.32573 88.9511 1.35522 89.0252 1.3478L89.1211 1.34058L89.1062 1.12632C88.9586 1.14116 88.5672 1.14116 87.9469 1.1189L87.7474 1.2519L87.74 1.13374C82.7844 1.53979 79.9705 1.7689 79.2984 1.8353C79.2097 1.84272 78.8627 1.8353 78.2496 1.82046C78.257 1.90171 78.1832 1.94604 78.0355 1.96089L77.8213 1.86479L77.0974 2.04956C76.9275 2.06421 76.6396 2.05679 76.2408 2.01265C76.1301 2.10112 75.997 2.15288 75.8345 2.16772C75.7459 2.17495 76.8906 2.10854 77.9541 2.03472C77.8433 2.12339 77.6736 2.17495 77.4373 2.19722C77.2748 2.21206 77.1344 2.18979 77.0162 2.12339C76.8537 2.19722 76.3295 2.31538 75.4506 2.49253L75.2363 2.41147L71.7799 2.94312C71.6469 2.87671 71.4918 2.85444 71.3146 2.86929C71.1299 2.88413 70.8197 2.95054 70.3914 3.0687L68.7222 3.76284L68.8478 3.96968C68.9291 3.96226 69.0472 3.91812 69.1875 3.83687L69.7785 3.88843L69.7045 4.44233C69.158 4.68608 68.8404 5.048 68.7517 5.50601C67.932 5.86772 67.5258 6.12632 67.5258 6.2814L67.5332 6.37749L67.6588 6.37007L67.8802 6.2519L68.1388 6.56206L68.1758 6.99038C68.1904 7.12339 66.8094 10.0259 64.0472 15.698C61.6543 21.1632 60.3988 24.1544 60.2806 24.6935C59.4609 24.9224 58.9881 25.2548 58.8478 25.698C58.8627 25.8382 59.1062 25.9343 59.5789 25.9712L59.6011 26.1853L59.3869 26.5398L59.4238 26.9683C59.4461 27.1898 60.0443 27.3597 61.2185 27.4779C61.2111 27.4041 61.2482 27.3597 61.3293 27.3523C61.3515 27.6181 61.2777 28.1351 61.1078 28.9033L61.2334 28.8959C61.7207 28.2312 61.9498 27.7732 61.9275 27.5222L62.031 27.5148C62.1492 27.5074 62.2748 27.6404 62.4224 27.9283C62.2748 27.9875 61.7578 29.1617 60.8715 31.4587L60.997 31.6654L61.1226 31.6582C62.2082 28.9107 62.8877 27.3892 63.1683 27.1011C64.5937 26.9755 67.0605 26.7246 70.5613 26.3478L70.7828 26.215C70.7902 26.2888 70.8345 26.3257 70.9158 26.3183L71.1447 26.2962L71.3664 26.1632C71.3736 26.2371 71.4179 26.274 71.4992 26.2666L74.1506 26.0376C74.8523 25.9787 75.1845 25.7644 75.1551 25.4025C75.1476 25.3066 75.5613 25.1957 76.3959 25.0775C76.4771 25.0701 76.5953 25.0923 76.7578 25.1441C76.7504 25.0775 77.1713 25.0111 78.0133 24.9373C78.0355 24.4941 78.1758 24.2578 78.4269 24.2357L78.4047 24.0214C78.1683 24.0435 77.9025 24.1027 77.5924 24.206C77.0385 24.1765 76.684 24.1322 76.5361 24.0804C76.3885 24.1617 76.2777 24.206 76.1965 24.2134L74.35 24.2726L74.1285 24.3908C74.1211 24.3242 74.0767 24.2947 73.9955 24.3021L73.8922 24.3095L73.6558 24.4277C73.6484 24.3611 73.4564 24.3095 73.0722 24.2578L72.8361 24.398L72.3781 24.4349L72.3707 24.3167C74.7488 24.0583 75.9232 23.7333 75.8935 23.3494C76.0488 23.3345 76.1301 23.4083 76.1447 23.5636L76.839 23.3863L76.8168 23.172L71.1226 23.3271C71.1299 23.4011 71.0929 23.4453 71.0119 23.4527L70.3176 23.3937C70.1402 23.4083 69.9926 23.4601 69.8744 23.5488L69.616 23.4527C68.8996 23.5119 68.3677 23.6005 68.0133 23.7113C67.5258 23.6744 66.9867 23.6816 66.3885 23.7333L65.1107 23.8441L64.5199 23.7777C64.4904 23.4011 65.2215 21.5472 66.7281 18.2238C67.164 17.1011 67.5627 16.3996 67.9469 16.1337C68.0281 16.1263 68.1463 16.1558 68.3088 16.2222L69.2172 15.9121L69.6824 15.9859C70.4652 15.9195 71.3736 15.698 72.415 15.3138C72.6736 15.2917 72.8656 15.3066 73.0058 15.3656L73.7002 15.2031L75.7681 15.0259C76.6469 14.9521 77.5996 14.7599 78.6336 14.4423L78.6115 14.2283C78.2275 14.2652 78.0281 14.1988 78.0133 14.0435C77.9912 13.7556 77.7105 13.6375 77.1713 13.6816L77.1492 13.4675L77.7179 13.305L79.2097 13.1794L79.1875 12.9654C79.1285 12.9726 78.8258 12.9654 78.2644 12.9431L78.2422 12.7142L78.8183 12.6625C78.9734 12.6478 79.0398 12.5738 79.0252 12.4261C78.2496 12.4484 77.8582 12.4115 77.8508 12.308C72.4445 12.5738 69.7342 12.6255 69.7193 12.4556C69.6381 12.463 69.5273 12.5148 69.3797 12.6035L69.2392 12.3818C70.672 9.33901 71.514 7.80288 71.7578 7.78061C71.765 7.89878 71.706 8.09077 71.573 8.34936L71.5804 8.44526L71.8094 8.42319C72.3781 7.06421 72.8582 6.36265 73.257 6.33315C74.9556 6.1853 73.0207 6.07456 76.6543 5.50601C76.8021 5.57241 76.9054 5.6019 76.9793 5.59448C78.4047 5.30659 80.3914 5.00366 82.9394 4.69351L82.9246 4.47925L81.5656 4.60483L81.551 4.39077C81.7135 4.37593 81.8463 4.32417 81.9572 4.23569L81.9644 4.35386C82.0385 4.34644 82.1418 4.29468 82.2748 4.20601C82.5111 4.18394 82.6883 4.20601 82.8138 4.27261C83.2865 4.14702 83.6705 4.07319 83.9511 4.04351L84.8006 3.96226C85.0074 3.82944 85.1033 3.71128 85.0961 3.60054L85.0886 3.50444C84.8744 3.52651 84.6306 3.51187 84.3427 3.46011C84.3353 3.34194 84.3943 3.26069 84.5347 3.22378L86.1152 3.07612L86.839 2.89136C86.8463 2.97261 86.8834 3.00229 86.9424 3.00229C87.0162 2.99487 87.1197 2.94312 87.2525 2.85444C87.2894 2.86187 87.3338 2.86187 87.3707 2.86929C87.2748 3.0687 87.1638 3.35679 87.0531 3.73335L86.8463 3.74819C86.8316 3.60776 86.7947 3.48237 86.7281 3.37144L86.6248 3.37886C84.7045 8.72593 83.8478 11.215 82.0754 15.3212C81.7504 16.3701 81.4771 16.9535 81.2408 17.0791C81.2482 17.1972 81.322 17.2562 81.4476 17.2416C81.4918 17.7585 81.3736 18.2681 81.0857 18.7703C80.2658 21.1337 79.7193 22.4261 79.4387 22.6625L79.6232 23.7777C79.6306 23.8958 79.5717 23.9623 79.4461 23.9771L79.2541 23.9919C79.2244 23.6816 79.1136 23.5339 78.9142 23.5562L78.8109 23.5636C78.5597 23.955 78.3678 24.4054 78.2422 24.9298L78.4342 24.915C78.6928 24.7453 78.8109 24.5458 78.7887 24.3167L79.1728 24.2798L79.3943 24.3611C79.2172 24.6417 79.1359 24.8634 79.1506 25.0332L79.2541 25.2105L79.0029 25.8013L79.0103 25.8974C79.2318 25.8751 79.4756 25.949 79.7342 26.1041C79.9113 26.0894 80.1033 26.0082 80.3176 25.8677C80.539 25.8457 81.3662 25.8382 82.7918 25.8382L83.508 25.5945C84.3797 25.5871 84.5199 25.6093 85.2732 25.5429L85.5834 25.5132L85.7459 25.4025L85.7533 25.4986C86.5435 25.432 86.5953 25.4837 87.2156 25.5576L87.223 25.6537L86.7873 25.6906L86.8019 25.8751C86.9349 25.8605 87.0531 25.8234 87.1492 25.7423C87.2599 25.7349 87.3263 25.7939 87.3338 25.9269C87.1566 25.9417 86.9572 25.9859 86.7355 26.0599L86.5435 25.9933C86.2408 26.0746 86.3072 26.0968 86.1004 26.1115L85.7976 26.0525C85.8051 26.1041 85.7754 26.141 85.7238 26.141C85.731 26.2593 85.7976 26.3183 85.9084 26.3109L86.2185 26.2814L87.8359 26.141L88.449 26.0082C88.4564 26.0599 88.4785 26.0894 88.5302 26.082L88.8256 25.9712L89.3797 25.9269C89.808 25.89 89.8006 25.8605 90.731 25.7126C90.7238 25.6537 90.7459 25.6314 90.7902 25.6242L90.7976 25.7052C92.3117 25.4468 92.4076 25.432 92.6513 25.3507L92.6734 25.3951C93.0502 25.3066 92.8359 25.3287 92.9394 25.2548C92.9469 25.3212 92.9689 25.3507 93.0058 25.3507L93.2717 25.3287L93.257 25.1292L92.7177 25.1218L92.7105 25.1072C92.6883 25.1144 92.6734 25.1144 92.6513 25.1218H92.5775V25.1367C92.2156 25.2105 92.2082 25.1587 91.9719 25.181L90.6203 25.2548L90.6129 25.1587L91.3662 25.0554L91.6394 25.0332L91.7947 24.9224L91.8019 25.0185C92.8656 24.9298 93.2422 25.1957 98.1609 24.147C98.4267 24.1248 98.4047 23.9033 98.5746 23.4453C98.4845 23.4514 98.3945 23.4309 98.316 23.3863C97.9099 23.5414 97.6957 23.4675 96.9129 23.5931C96.8463 23.6005 96.7947 23.5414 96.7724 23.4232L96.765 23.3419L97.5183 23.364C97.6588 23.3494 97.932 23.3271 98.3383 23.0982C98.3383 23.1648 98.1904 23.2017 98.2791 23.1943V23.1943ZM61.9129 23.7777L61.5656 23.8072C61.551 23.6669 61.7355 23.1351 62.1195 22.2267L62.3486 22.2046C62.356 22.4187 62.2156 22.9431 61.9129 23.7777ZM62.3338 22.0939L62.3263 21.9978C62.3189 21.8796 62.3929 21.7984 62.5554 21.7615L62.5627 21.8574C62.5701 21.9978 62.4963 22.0791 62.3338 22.0939V22.0939ZM66.9498 25.6611L66.9572 25.757L66.381 25.8087L66.3736 25.7126L66.9498 25.6611ZM66.2554 25.6019C66.2629 25.7201 66.0857 25.8531 65.7015 25.9859L64.9926 25.9343L64.7636 25.9564L64.7416 25.7423L66.2554 25.6019V25.6019ZM70.9232 4.11753L70.576 4.14702L70.5687 4.02886C70.5613 3.91069 70.6277 3.82944 70.7754 3.79253L70.901 3.78511L71.1373 3.88101C71.1447 4.02144 71.0783 4.10269 70.9232 4.11753V4.11753ZM76.2039 3.08354L76.3146 3.07612L76.3293 3.29019L76.0117 3.31987C76.0045 3.20171 76.0635 3.12046 76.2039 3.08354ZM74.8744 3.54878L74.35 3.4896L74.3426 3.3937C75.0295 3.33452 75.2584 3.26069 75.6795 3.14253C75.6869 3.22378 75.7607 3.25327 75.8935 3.23862L75.9084 3.45269L75.7015 3.47495C75.539 3.4896 75.3988 3.46753 75.2806 3.40112C75.1551 3.48237 75.022 3.53394 74.8744 3.54878V3.54878ZM75.5318 5.46167L75.5244 5.36558L76.3736 5.28433L76.381 5.38042L75.5318 5.46167ZM76.4402 4.723L76.4328 4.60483L76.8463 4.56792L76.8537 4.68608L76.4402 4.723ZM76.5361 3.27554L76.4254 3.28296L76.5215 3.05386L77.4668 2.96538L77.4742 3.08354C77.2304 3.10562 76.9129 3.17202 76.5361 3.27554V3.27554ZM77.0162 5.31382L77.0013 5.09976L77.415 5.06284C77.5554 5.048 77.6293 5.1144 77.6367 5.26226L77.0162 5.31382V5.31382ZM79.5199 1.90171L78.9881 2.04956L78.8922 2.05679C78.641 2.07905 78.316 2.07163 77.932 2.03472C78.6189 1.99038 79.2761 1.93862 79.5199 1.90171V1.90171ZM78.9512 4.26519L78.9586 4.36108L78.2275 4.42769L78.2201 4.33159L78.9512 4.26519ZM80.1476 4.83374C80.1402 4.74526 80 4.68608 79.7119 4.65659L78.9808 4.86343L78.4195 4.8855C78.2939 4.79683 78.2275 4.73784 78.2201 4.69351L78.8701 4.73042L80.3324 4.49409L81.0783 4.52358L81.0857 4.64175C80.7164 4.67866 80.4062 4.74526 80.1476 4.83374ZM87.6736 2.89136C87.7621 2.89878 87.8213 2.89878 87.8433 2.89878C88.1019 2.6478 88.39 2.44839 88.7222 2.30796C88.4564 3.47495 88.0428 4.33901 87.4742 4.90034L87.0605 4.64917C87.4076 3.77026 87.6144 3.18687 87.6736 2.89136V2.89136ZM86.4033 5.07026L86.5066 5.06284C86.3662 5.32866 86.2408 5.4689 86.1373 5.47632L86.1152 5.19565C86.1816 5.19565 86.2777 5.15132 86.4033 5.07026ZM85.5834 7.0273C85.7828 6.22964 85.9748 5.77925 86.1521 5.66108L86.1595 5.75698C86.056 6.49565 85.8935 6.88706 85.6795 6.91655L85.7164 7.38179C85.539 7.63296 85.4578 7.82495 85.4652 7.97261L85.3619 7.98003L85.3027 7.33745C85.4209 7.3228 85.517 7.21929 85.5834 7.0273V7.0273ZM85.2658 8.09077C85.2732 8.20171 85.1994 8.46011 85.0517 8.85894L84.9482 8.86636L84.9261 8.58569C85.0664 8.26069 85.1845 8.09819 85.2658 8.09077ZM79.3058 25.3876L79.2984 25.3066L79.4904 25.2917L79.5125 25.5724C79.4092 25.5798 79.3353 25.5207 79.3058 25.3876ZM87.8213 25.6093C87.8138 25.5429 87.7844 25.5132 87.7179 25.5207L87.2379 25.565L87.2304 25.4689H87.2748L88.4121 25.373L88.4195 25.4689C88.0871 25.4837 87.8877 25.5355 87.8213 25.6093V25.6093ZM87.2525 25.373C87.2969 25.3951 87.2748 25.4173 87.2525 25.432C87.2304 25.4248 87.201 25.4025 87.2525 25.373ZM87.3117 24.0435L86.6765 24.0953L86.6691 23.9992L87.2451 23.9476L87.7474 23.822C87.7549 23.881 87.7843 23.9033 87.8508 23.8958C88.449 23.7925 88.39 23.763 88.6779 23.7408C88.774 23.7333 88.8332 23.7925 88.8404 23.9107L87.3117 24.0435V24.0435ZM89.5347 23.8515C89.1802 23.8146 89.158 23.7851 88.907 23.8072L88.8996 23.7259L89.4681 23.6744L89.4756 23.7556C89.4166 23.763 89.6306 23.7777 89.5347 23.8515ZM89.5791 23.7482L89.5717 23.6669L89.8818 23.6375L89.8892 23.7187L89.5791 23.7482ZM90.2658 23.689L90.2586 23.6078C90.3101 23.6005 90.384 23.5636 90.4801 23.4896C90.6351 23.475 90.7164 23.5783 90.7312 23.6964L90.2658 23.689V23.689ZM91.1447 23.5783L91.1373 23.4824L91.514 23.4527L91.5215 23.5488L91.1447 23.5783ZM91.6691 23.5339C91.6617 23.4232 91.706 23.3568 91.8021 23.3419L91.9275 23.5044C91.9203 23.4527 91.9424 23.4232 91.9867 23.4158L92.0828 23.5931L91.6691 23.5339ZM86.0931 25.9417L86.0783 25.757L86.0191 25.7644L86.034 25.949L86.0931 25.9417ZM99.0695 22.5812C99.1285 22.5443 99.158 22.5074 99.0178 22.4853C98.9511 22.5591 99.0916 22.5812 98.9439 22.5886L98.9511 22.655C98.966 22.6404 99.0029 22.6181 99.0324 22.596L98.9511 22.6625V22.6699L98.7961 22.8693L99.1062 22.7585H99.1433L99.1285 22.5738L99.0695 22.5812ZM99.6086 23.0023L99.5494 23.0097L99.5642 23.1943L100 23.1574C99.9926 23.0392 99.7045 23.0023 99.6086 23.0023ZM98.9365 22.6773L98.9439 22.6699V22.6625C98.9439 22.6625 98.9365 22.6699 98.9365 22.6773Z" fill="black"/>
<path d="M70.5834 9.00659L70.5908 9.12476L70.8346 9.10268C70.8271 9.02886 70.8566 8.91069 70.9084 8.76284L70.8863 8.54878C70.7828 8.5562 70.6795 8.71128 70.5834 9.00659V9.00659ZM68.2496 3.3937L68.2275 3.17944L67.8803 3.20894L67.9025 3.42319L68.2496 3.3937V3.3937ZM61.4771 16.0746C61.4623 15.8751 60.842 15.0998 59.616 13.7333C59.5938 13.4824 60.0148 13.1056 60.8789 12.6109L63.3457 10.4617C63.8996 9.75991 64.2244 8.62261 64.3205 7.04214L64.291 6.68022C64.1949 5.58706 63.4047 4.70835 61.9055 4.03628C61.0191 3.43804 59.4238 3.10562 57.1197 3.04644C55.2143 3.20894 52.7252 3.88843 49.6604 5.09233C48.8184 5.698 47.8582 6.30347 46.7799 6.90913L46.7947 7.0939C46.8611 7.08647 46.9645 7.04956 47.0828 6.96831C47.2082 6.95347 47.2822 7.01265 47.2895 7.13081L47.4742 7.03472L47.5627 7.02729L47.5701 7.10854C47.5775 7.20464 46.9129 7.72886 45.5687 8.66694L45.6721 8.85893L45.5834 8.86636L45.3619 8.78511C45.3693 8.85151 45.2732 8.89585 45.0887 8.91069L45.0961 8.99194L45.3102 9.25776C45.2438 9.26518 45.1404 9.23569 45 9.18394C44.6898 9.21343 44.3869 9.37593 44.0842 9.68608L44.2098 9.1396C44.6604 7.19722 44.9705 5.47632 45.133 3.98452L45.1107 3.88843C44.8006 3.68901 44.4979 3.40835 44.2172 3.05386C44.2246 2.82495 44.2246 2.69194 44.2172 2.66245L44.1949 2.5812L44.1064 2.60347C43.1314 4.06577 41.2555 6.56206 38.4713 10.0923C36.3516 12.6035 35.2584 13.9992 35.192 14.2798C34.3279 15.1736 33.9143 15.7126 33.9586 15.8974C33.7297 16.0451 33.6336 16.1927 33.6707 16.3552C33.6041 16.3701 33.5598 16.3478 33.5451 16.2814C33.1758 16.8796 32.6293 17.2636 31.898 17.4335L31.1299 17.6107C31.0266 17.633 30.9748 17.7068 30.9822 17.8324L31.0045 17.9283L31.2924 17.8619L31.3146 17.9431L30.6646 18.1943L29.5125 18.4601L28.907 18.497C28.8184 18.5857 29.3869 18.4896 29.1654 18.5414L28.4121 18.7187C27.9543 18.822 27.7031 18.7851 27.6588 18.6005L27.5701 18.6226C27.585 18.7039 27.5924 18.7628 27.5775 18.8146L27.5332 18.63L26.9275 18.7703C26.8834 18.4896 26.0635 17.4705 24.4756 15.7126C24.4461 15.373 25.0074 14.8781 26.1521 14.2357L29.3869 11.3921C30.1107 10.4617 30.5391 8.96968 30.6795 6.91655L30.6352 6.43647C30.5096 4.98901 29.4609 3.82202 27.4889 2.92104C26.3221 2.13081 24.2246 1.70972 21.1965 1.64331C18.6854 1.85737 15.4063 2.75112 11.3736 4.30952C10.2658 5.1144 9.00293 5.91206 7.58496 6.70229L7.60703 6.95347C7.70313 6.94604 7.82871 6.89448 7.98379 6.80581C8.14629 6.79097 8.23496 6.86479 8.24961 7.01265L8.50078 6.87222L8.62637 6.86479L8.63359 6.98296C8.64102 7.10112 7.76211 7.78804 5.98223 9.04351L6.12266 9.26519L5.99707 9.27261L5.72383 9.17651C5.73125 9.25034 5.60566 9.3021 5.34707 9.32417L5.36191 9.45718L5.65723 9.78218C5.56133 9.7896 5.42832 9.75991 5.25859 9.70093C4.68242 9.75249 4.12109 10.1662 3.56719 10.949L3.70762 11.1707C4.1877 10.7275 4.46816 10.506 4.54941 10.4986L4.5791 10.8605C4.49785 10.8677 4.37227 10.9195 4.20234 11.0082L4.50527 11.466C5.0772 10.8479 5.72483 10.3045 6.43281 9.84858C6.77988 9.93726 6.96465 10.048 6.97187 10.1662L7.23789 10.1441C9.14336 8.73335 11.0266 7.71421 12.8951 7.08647L12.9174 7.33745C12.5701 7.85444 12.3338 8.12046 12.2082 8.13511C12.223 8.31245 12.2822 8.46753 12.393 8.60054C12.4225 8.91811 11.573 11.0599 9.85234 15.0185C5.94531 24.2208 2.66621 31.0302 0 35.432C0.00742187 35.5207 0.0591797 35.6388 0.155078 35.7865C0.8125 35.6314 1.22598 35.4691 1.40332 35.3138L1.54355 35.2992L1.56582 35.5501L1.80937 35.5281L2.06055 35.3878C2.06797 35.4617 2.14922 35.4986 2.31914 35.4837L2.34121 35.7349C2.36328 35.9787 2.22305 36.3478 1.92754 36.8574C1.66172 37.1603 1.37363 37.7955 1.0709 38.763L1.07832 38.881L1.32207 38.8589C2.38555 37.6699 3.19063 36.5029 3.74453 35.3656C6.84648 34.4572 9.20977 33.5634 10.8494 32.6847C12.4963 32.5443 13.7518 32.1085 14.6086 31.3921L14.5938 31.2593L13.9734 31.4439L13.833 31.4587L13.8184 31.3257C15.0295 31.1412 15.8641 30.8751 16.3295 30.506C18.6854 28.689 20.4652 27.4041 21.6691 26.6433C24.1434 24.8265 25.7533 23.0539 26.4846 21.3332C26.6174 21.3035 26.7504 21.274 26.898 21.2371C27.2451 21.2224 27.4373 21.215 27.4889 21.2001C27.4742 21.1337 27.5037 21.0968 27.5701 21.082C28.124 21.023 27.8582 21.1189 28.2127 21.0376L29.1434 20.8236L29.2984 20.7865L29.2246 20.8308C29.3279 20.8457 29.4387 20.8382 29.5643 20.8087L29.6307 21.082L25.3988 27.8101L24.4609 28.9845L24.0029 30.5207L24.0916 30.4986L24.5494 30.3066L24.4018 30.9048L24.4461 31.082L24.5717 31.2371C24.5125 31.2519 24.4904 31.2888 24.5051 31.3552L24.5273 31.4513L24.7193 31.407C25 31.1632 25.1182 30.9417 25.0738 30.7423C25.3766 30.7939 25.576 30.8162 25.6795 30.7867L25.7016 30.8826C25.517 30.9269 25.4209 31.0746 25.4063 31.3257L25.4283 31.4216L25.5318 31.3996C27.068 29.723 30.8346 23.9845 33.8553 20.0923C33.7592 19.6714 35.3324 19.0878 38.582 18.3345L38.6854 18.3124C38.8035 18.822 38.5525 20.0554 37.932 22.0126C37.5332 23.1943 37.3412 23.8441 37.3707 23.9476C36.8537 25.5207 36.61 26.3701 36.6396 26.5029L35.4875 30.2769C34.7414 32.2121 34.1729 34.2429 33.774 36.3847C33.8404 36.3701 33.9439 36.3775 34.0916 36.4144L34.2541 36.274C34.2687 36.3406 34.3131 36.3626 34.3797 36.3478L34.3131 36.0746L34.8154 36.0599C34.9631 36.023 35.0887 35.8382 35.192 35.4986C35.1699 34.989 35.2732 34.7158 35.5021 34.6566C35.8123 33.4455 36.0045 32.8398 36.0709 32.8175C36.359 31.6138 36.573 30.9269 36.7135 30.757C37.1492 29.1914 37.4668 28.3863 37.6736 28.3345L37.718 28.5265L37.4004 29.3464C36.8463 31.8058 36.2852 33.7482 35.7164 35.1736L35.8789 35.8826L35.9822 35.8605C37.3561 32.9062 39.3354 27.0568 41.9129 18.3124C41.9867 17.5443 42.3561 16.946 43.0133 16.5251L42.8656 16.3701L42.8434 16.2888C43.1389 16.2222 43.3457 16.1042 43.4639 15.9417C43.449 15.8751 43.1906 15.7792 42.6883 15.6462L43.9734 10.1367C44.2541 9.8855 44.4166 9.75268 44.4682 9.75268L44.4904 10.0332C44.424 10.0406 44.3205 10.0775 44.2023 10.1587L44.4461 10.506C44.8893 10.0259 45.3693 9.61226 45.8936 9.26519C46.1596 9.33901 46.2924 9.42769 46.3072 9.51616L46.4992 9.50151C47.9615 8.43061 49.3943 7.66245 50.8051 7.19722L50.8197 7.38179C50.5613 7.77319 50.384 7.97261 50.2881 7.98003C50.3027 8.11304 50.3396 8.2312 50.4062 8.33452C50.4283 8.57827 49.7932 10.2031 48.4934 13.2164C45.5244 20.1957 43.0354 25.3582 41.0117 28.7113C41.0191 28.7777 41.0635 28.8664 41.1447 28.9845C41.6396 28.8664 41.9572 28.7408 42.0828 28.6226L42.1713 28.6152L42.1861 28.7998L42.393 28.7851L42.5775 28.689C42.585 28.7408 42.6514 28.7628 42.777 28.7556L42.7918 28.955C42.8064 29.1322 42.7031 29.4128 42.4742 29.7968C42.26 30.0259 42.0385 30.506 41.8021 31.2371L41.8094 31.3332L42.0016 31.3183C42.8064 30.4173 43.4195 29.531 43.8404 28.6595C46.1965 27.9654 47.9912 27.2931 49.2318 26.6285C50.4949 26.5177 51.4475 26.1927 52.0975 25.6462L52.09 25.5501L51.61 25.6906L51.5066 25.698L51.4992 25.6019C52.415 25.4689 53.0576 25.2623 53.4047 24.989C55.192 23.6152 56.5436 22.633 57.4594 22.0568C60.3102 19.9816 61.6396 17.9874 61.4771 16.0746V16.0746ZM60.9896 16.2001L61.0561 16.946C60.9676 17.1308 60.8715 17.2267 60.7828 17.2341L60.6721 15.9638C60.8789 16.0376 60.9822 16.1115 60.9896 16.2001V16.2001ZM5.06641 10.1884L4.94102 10.1957L4.91875 9.96675L5.42832 9.92241L5.43574 10.0406C5.35449 10.048 5.22891 10.0923 5.06641 10.1884V10.1884ZM2.57754 35.0849C2.28223 34.9519 2.01621 34.9003 1.7873 34.9224L1.75781 34.5605C1.74297 34.4203 1.82422 34.3242 2.00156 34.2873C2.16387 34.2726 2.25996 34.3908 2.2748 34.6271C2.70313 34.1027 2.93945 33.8369 2.98379 33.8294L3.25703 33.9402C3.16836 34.6787 2.93945 35.0554 2.57754 35.0849V35.0849ZM29.1729 7.26362C29.0473 7.27847 28.7961 6.88706 28.4344 6.11147L28.4121 5.88257C28.6484 5.8605 28.8922 6.24448 29.1506 7.03472L29.1729 7.26362V7.26362ZM28.8184 4.50894L28.7148 4.75269L25.1033 3.24585C27.5111 3.3271 28.752 3.74819 28.8184 4.50894ZM13.5672 17.6035L13.0576 17.6478L13.0355 17.4187L13.5451 17.3744L13.5672 17.6035ZM13.1535 9.73784L13.2791 9.73042L13.3088 10.0923C13.1906 10.0998 13.0355 10.2769 12.8434 10.6167L12.8213 10.3656C13.0502 10.0923 13.1684 9.8855 13.1535 9.73784V9.73784ZM12.0826 12.2636L12.127 12.7437L12.0016 12.7511L11.9572 12.271L12.0826 12.2636ZM11.5215 13.1648L11.7652 13.1425C11.743 13.5414 11.6322 13.7556 11.4328 13.7703L11.3072 13.7777C11.4623 13.5119 11.5361 13.305 11.5215 13.1648V13.1648ZM11.1004 14.4203L11.2408 14.4054L11.248 14.5236L11.0191 14.9078L10.7754 14.9298L10.7682 14.8117C11.0119 14.7896 11.1227 14.664 11.1004 14.4203V14.4203ZM10.6869 15.5503L10.6131 16.1558L10.4875 16.1632L10.4357 15.565L10.6869 15.5503V15.5503ZM6.54355 27.3302C6.38105 28.1574 6.20391 28.5783 6.01914 28.5931L6.01191 28.4749C5.96758 28.0687 6.14473 27.6847 6.54355 27.3302V27.3302ZM5.78281 28.9771L5.79023 29.0953C5.80508 29.2578 5.73125 29.3539 5.56875 29.3611L5.56133 29.2429C5.54648 29.1027 5.62031 29.014 5.78281 28.9771ZM5.56133 32.3966L5.94531 32.3597L5.96016 32.4927C5.86406 32.4999 5.73848 32.5517 5.5834 32.6404L5.33965 32.6624C5.325 32.5369 5.40625 32.441 5.56133 32.3966V32.3966ZM16.4918 29.0214C14.3354 30.0849 13.065 30.8087 12.6883 31.1853C10.3545 31.9978 9.19492 32.4999 9.21719 32.6994C7.1418 33.5193 5.77539 34.1248 5.11816 34.5015C4.96309 34.5162 4.7416 34.4572 4.44609 34.3242C4.40918 33.9033 4.60117 33.5634 5.00742 33.2902C5.36934 33.2607 5.71641 33.3124 6.04883 33.4527C6.43281 33.2533 7.10488 33.0318 8.05762 32.7955L8.03555 32.5443L7.26738 32.6107C7.36328 32.4779 8.10195 32.1308 9.49043 31.5695L9.87441 31.5326L9.88184 31.6507C9.22461 31.7097 8.8627 31.9017 8.78145 32.249C8.79609 32.404 8.88477 32.4705 9.04727 32.4556C9.54219 32.1455 9.78574 31.9609 9.77852 31.9091C10.7164 31.732 13.3088 30.373 17.5555 27.8398L17.5775 28.0687C17.585 28.1794 17.223 28.4896 16.4918 29.0214V29.0214ZM9.97793 31.1632C10.5982 31.1115 11.1301 30.8605 11.573 30.4248C11.7504 30.4099 11.8465 30.4763 11.8537 30.6314C11.551 30.6611 10.9676 30.9121 10.1182 31.3996L9.99258 31.407L9.97793 31.1632ZM20.4875 23.0908L17.2305 25.6757C14.808 27.2636 13.5082 28.0613 13.316 28.0761C9.46094 30.1957 7.06055 31.2962 6.13008 31.3775L5.98965 31.3921C6.10781 30.9564 7.82129 27.4484 11.1447 20.8457C12.607 20.7201 14.9113 20.0406 18.0502 18.8L18.8184 18.7333C20.4062 18.5931 21.5953 18.9033 22.3781 19.6417L22.4225 20.1218C21.8391 21.8132 21.1891 22.8029 20.4875 23.0908V23.0908ZM14.1211 19.5089L14.6455 19.4646L14.6529 19.5828L14.1285 19.6271L14.1211 19.5089ZM21.4846 18.2607L21.8686 18.2238C22.223 18.3937 22.4076 18.5414 22.4225 18.6744L22.4299 18.7925C22.09 18.822 21.7725 18.6447 21.4846 18.2607V18.2607ZM22.5258 12.3302C22.1861 12.7363 21.2555 13.4306 19.7342 14.4054C19.2318 14.4498 17.3633 15.1736 14.1285 16.5916C13.9668 16.5177 13.7886 16.4871 13.6115 16.5029L13.5895 16.274C13.5525 15.8087 13.7592 15.2253 14.2172 14.5164C14.4682 13.1869 14.7416 12.4261 15.0443 12.2416L17.74 6.17808C17.7105 5.80132 18.2865 5.51323 19.4682 5.31382L19.8523 5.2769L19.8818 5.62417C21.0414 5.44683 21.765 5.34351 22.0457 5.32124C24.1877 5.13667 25.3027 5.57241 25.3914 6.61382L25.6352 6.59155L25.5834 5.97866L25.8494 5.9564C26.4771 6.30347 26.8168 6.72456 26.8611 7.21929C26.8906 7.55913 26.7061 7.98003 26.3146 8.48237C26.1521 8.49702 26.0561 8.37886 26.0414 8.14253L25.7754 8.16479L25.7164 8.90327C24.6307 10.5281 23.8404 11.3626 23.3531 11.407C22.91 12.0199 22.6367 12.3228 22.5258 12.3302ZM24.1803 16.5769C23.9586 16.4291 23.7814 16.3626 23.6484 16.3701L23.6189 16.0082L23.8627 15.9859L24.4018 16.3037C24.424 16.4734 24.35 16.5621 24.1803 16.5769V16.5769ZM25.8938 18.6078C26.1301 18.7039 26.2703 18.8072 26.2998 18.9033L26.1816 18.9328L26.1891 18.9402C26.167 18.9402 26.1373 18.9476 26.1152 18.955L25.9379 19.0953L25.8938 18.6078V18.6078ZM26.0561 19.6271L26.034 19.531L26.3441 19.4572L26.3664 19.5533L26.0561 19.6271ZM26.8021 20.4617C27.1197 20.4099 27.2748 20.3878 27.8656 20.2548L27.8877 20.3507L26.7652 20.6093C26.7799 20.5576 26.7947 20.506 26.8021 20.4617ZM27.8951 20.9269C27.4225 20.9712 27.5258 20.9121 26.7725 21.082L26.7504 20.9859L27.6957 20.6832L28.1463 20.5798L28.1906 20.757C27.9838 20.8013 28.1314 20.8013 27.8951 20.9269ZM28.8922 20.6906C28.7814 20.7201 28.6928 20.6685 28.641 20.5429L28.9291 20.4763C29.0547 20.4468 29.1359 20.4986 29.1654 20.6242L28.8922 20.6906V20.6906ZM31.5953 17.7806L31.573 17.6847L32.0385 17.5738L32.0828 17.7511L31.5953 17.7806ZM34.483 35.4912C34.5125 35.3582 34.5199 35.2623 34.5051 35.1957L34.6086 35.1736C34.7342 35.1441 34.808 35.1884 34.8375 35.3066L34.8598 35.4025L34.483 35.4912V35.4912ZM36.5066 18.5414L36.2998 18.5044C35.9676 18.6375 35.6869 18.7333 35.4578 18.7851L35.2658 18.8294C35.1551 18.8589 35.0664 18.8146 35.0221 18.6964L36.3736 18.3863L36.8168 18.1794L36.9646 18.3494C36.7504 18.3937 36.5953 18.4601 36.5066 18.5414V18.5414ZM37.548 18.2089L37.5258 18.113C37.5924 18.0982 37.6809 18.0466 37.777 17.9505L38.7371 17.7289L38.7592 17.8249C38.2496 17.9505 37.8434 18.0761 37.548 18.2089ZM37.6957 16.2666C37.6293 16.2814 37.5406 16.3404 37.4299 16.4291C37.415 16.3626 37.2822 16.3626 37.0311 16.4216C36.9867 16.2371 37.6957 15.9787 39.1654 15.6388L39.3723 15.5945L39.4166 15.7718C38.3826 16.0746 37.8064 16.2445 37.6957 16.2666ZM40.2807 13.475C40.1773 14.6492 39.7637 15.3138 39.0324 15.4837L39.0104 15.3878L38.3604 15.6388L38.0725 15.7054C37.9246 15.7423 37.7918 15.7349 37.6736 15.698L37.6145 15.4394C37.5924 15.3435 38.5303 14.0435 40.4357 11.5472L40.6572 11.5841C40.7385 11.924 40.6131 12.5517 40.2807 13.475ZM44.8523 9.5605L44.7637 9.56792L44.7488 9.38335L45.133 9.34644L45.1402 9.44233C45.0738 9.45718 44.9779 9.49409 44.8523 9.5605V9.5605ZM42.9689 28.4749C42.7475 28.3714 42.548 28.3271 42.3781 28.3419L42.3561 28.0613C42.3486 27.9654 42.4076 27.8988 42.5332 27.8619C42.6588 27.8472 42.7326 27.9357 42.7475 28.1277C43.065 27.7216 43.2422 27.5148 43.2791 27.5148L43.4785 27.596C43.4047 28.1574 43.235 28.4527 42.9689 28.4749V28.4749ZM63.1609 7.35229C63.065 7.35972 62.8803 7.06421 62.5924 6.46597L62.5775 6.2814C62.7621 6.26655 62.9543 6.55464 63.1463 7.14546L63.1609 7.35229V7.35229ZM62.8951 5.23999L62.8064 5.43198L60.0738 4.28726C61.898 4.34644 62.8434 4.66401 62.8951 5.23999ZM51.3072 15.1884L50.9232 15.2253L50.9084 15.0406L51.2924 15.0037L51.3072 15.1884ZM50.9896 9.21343L51.093 9.20601L51.1152 9.48667C51.0191 9.49409 50.901 9.6271 50.7607 9.8855L50.7459 9.70093C50.9158 9.48667 50.9971 9.32417 50.9896 9.21343V9.21343ZM50.1846 11.1337L50.2143 11.4957L50.1107 11.5031L50.0812 11.1412L50.1846 11.1337ZM49.7488 11.8205L49.9408 11.8058C49.9188 12.116 49.8375 12.2785 49.6973 12.2931L49.5937 12.3005C49.7045 12.0939 49.7563 11.9314 49.7488 11.8205V11.8205ZM49.4387 12.766L49.5273 12.7585L49.5348 12.8544L49.3648 13.15L49.1729 13.1648L49.1654 13.0687C49.3648 13.0539 49.4535 12.9505 49.4387 12.766V12.766ZM49.1285 13.6226L49.0621 14.0953L48.9734 14.1027L48.9365 13.6375L49.1285 13.6226ZM45.9748 22.5812C45.8494 23.2017 45.7164 23.5193 45.576 23.5339L45.5687 23.4527C45.5465 23.1425 45.6795 22.847 45.9748 22.5812ZM45.3914 23.8294L45.3988 23.9107C45.4137 24.0435 45.3545 24.1173 45.2215 24.1248L45.2143 24.0289C45.2068 23.9328 45.2658 23.8664 45.3914 23.8294V23.8294ZM45.2289 26.4291L45.5244 26.407L45.5316 26.5029C45.4652 26.5103 45.3619 26.5472 45.2437 26.6138L45.0518 26.6285C45.0443 26.5251 45.1033 26.4587 45.2289 26.4291V26.4291ZM53.5228 23.8664C51.898 24.6714 50.9305 25.2179 50.6277 25.4986C48.8553 26.1189 47.9764 26.5029 47.9912 26.658C46.418 27.2859 45.384 27.7363 44.8967 28.0244C44.7785 28.0318 44.6086 27.9874 44.3869 27.8841C44.3574 27.5666 44.5051 27.308 44.8154 27.116C45.0961 27.0939 45.3619 27.1308 45.6057 27.2341C45.901 27.0865 46.4105 26.924 47.1344 26.7392L47.1197 26.5546L46.5215 26.6064C46.5953 26.5029 47.1639 26.2371 48.2201 25.8087L48.5154 25.7865L48.5229 25.8677C48.0207 25.9121 47.74 26.0599 47.6809 26.3257C47.6883 26.4439 47.7621 26.5029 47.8877 26.4882C48.257 26.2445 48.4342 26.1041 48.4342 26.0599C49.1434 25.9343 51.1078 24.9003 54.3353 22.9654L54.35 23.1499C54.35 23.2238 54.0768 23.4601 53.5228 23.8664V23.8664ZM48.5746 25.4912C49.0547 25.4468 49.4609 25.2623 49.8006 24.9373C49.9262 24.9298 50 24.9816 50.0074 25.0998C49.7857 25.1218 49.35 25.3066 48.6928 25.6611L48.5895 25.6683L48.5746 25.4912V25.4912ZM56.5658 19.3539L54.1064 21.3332C52.2674 22.5369 51.2703 23.1425 51.1152 23.1574C48.1906 24.7673 46.3736 25.6019 45.6572 25.6611L45.5539 25.6683C45.6426 25.3361 46.9498 22.6699 49.4756 17.6624C50.576 17.5666 52.3191 17.0421 54.7119 16.0968L55.3102 16.0451C56.5141 15.9417 57.415 16.1781 58.0059 16.7466L58.0355 17.1085C57.585 18.3789 57.0975 19.1248 56.5658 19.3539V19.3539ZM51.7355 16.6359L52.1197 16.599L52.127 16.6951L51.743 16.732L51.7355 16.6359V16.6359ZM57.3264 15.6832L57.6219 15.6611C57.8951 15.7939 58.0355 15.9121 58.0428 16.0082L58.0502 16.0894C57.7918 16.1115 57.548 15.9787 57.3264 15.6832V15.6832ZM58.102 11.1853C57.8434 11.4957 57.1418 12.0273 55.9971 12.766C55.6131 12.8029 54.1949 13.3494 51.743 14.4128C51.6248 14.3685 51.4918 14.3539 51.3516 14.3611L51.3367 14.1765C51.3072 13.822 51.4623 13.3789 51.8021 12.8398C51.9941 11.8205 52.2082 11.2519 52.4299 11.1189L54.4904 6.5103C54.4682 6.23706 54.9039 6.01558 55.7902 5.84565L56.0857 5.82358L56.1078 6.10405C56.9793 5.96382 57.5258 5.88257 57.7475 5.8605C59.3723 5.72007 60.2215 6.04507 60.2881 6.84272L60.4801 6.82788L60.4432 6.38472L60.6352 6.37007C61.1078 6.62847 61.359 6.93862 61.3885 7.30796C61.4105 7.57378 61.2777 7.89878 60.9971 8.27554C60.8715 8.29018 60.7977 8.20171 60.7828 8.00952L60.5908 8.02436L60.5318 8.57827C59.7119 9.82651 59.1137 10.4689 58.7371 10.4986C58.4047 10.949 58.1979 11.1781 58.102 11.1853V11.1853ZM58.966 14.2578L58.9439 13.9771L59.1359 13.9624L59.5494 14.2134C59.5568 14.3316 59.4979 14.3982 59.3723 14.4128C59.1949 14.3021 59.0621 14.2503 58.966 14.2578V14.2578ZM24.5863 32.1972L24.3943 32.2416L24.2318 32.3818C24.2615 32.4999 24.3354 32.5443 24.4609 32.5148C24.5863 32.4853 24.6381 32.4115 24.6086 32.2933L24.5863 32.1972V32.1972ZM23.8553 30.7423L23.8773 30.8382C24.0029 30.8087 24.0547 30.7349 24.0252 30.6167L24.0029 30.5207C23.8848 30.5501 23.833 30.6242 23.8553 30.7423V30.7423ZM29.0842 20.9195L29.2246 20.8308C29.1949 20.8308 29.1729 20.8234 29.1506 20.8162C29.099 20.8308 29.0768 20.8677 29.0842 20.9195ZM29.0547 18.3714L29.2762 18.3199L29.2318 18.1277L29.0104 18.1794L29.0547 18.3714V18.3714ZM81.2482 25.8308L80.7459 25.7718L80.6572 25.9638L80.6646 26.0599L83.6559 25.8087L83.641 25.6242L81.2482 25.8308ZM83.9809 25.6019L83.9955 25.7865H84.025L84.0104 25.6019H83.9809ZM96.5287 23.9623L96.5436 24.147L96.8686 24.206L96.8537 24.0214L96.5287 23.9623V23.9623ZM96.0709 23.9992C93.8258 24.5015 93.5451 24.4128 93.0725 24.4498L93.0871 24.6343L93.2939 24.6197L93.4047 24.6123L93.3752 24.5902L93.6189 24.4941C95.842 24.2503 96.1004 24.339 96.0783 24.0878L96.0709 23.9992ZM82.5924 20.7349L82.393 20.6685C82.2305 21.1041 82.1492 21.3626 82.1566 21.4365L82.1639 21.5177C82.3191 21.5103 82.4594 21.2445 82.5924 20.7349ZM79.8893 19.28L79.8818 19.1839L79.7785 19.1914L79.5937 19.3095L79.6973 19.4867C79.8375 19.472 79.9039 19.4054 79.8893 19.28V19.28ZM85.7607 25.3507L85.7459 25.1662L85.6869 25.1736L85.7016 25.3582L85.7607 25.3507V25.3507ZM97.9469 22.6035L98.0871 22.5886C98.1684 22.5812 98.2053 22.5148 98.1979 22.3966L98.1166 22.2193C97.607 22.2636 97.3707 22.2859 96.9572 22.5148L96.9498 22.4187L96.3367 22.4779C96.3221 22.2931 96.2703 22.1972 96.1891 22.2046L95.8715 22.2341C95.5021 22.2636 95.325 22.249 95.1402 22.3892C95.133 22.3228 95.1107 22.2931 95.0738 22.2931L94.7193 22.3228L94.5125 22.441C94.5051 22.3744 94.483 22.3449 94.4461 22.3449L94.3205 22.4556L94.3131 22.3597L93.8184 22.3228L93.7002 22.3302L93.7148 22.5148L93.966 22.5812L94.2023 22.5666C94.2836 22.6181 94.3723 22.633 94.4756 22.6255L94.6824 22.5222L94.6898 22.6035C93.5303 22.8914 93.5377 22.8398 92.74 22.9726C92.6514 22.9136 92.585 22.8841 92.5406 22.8914L92.5258 22.9062C92.4373 22.8988 92.3855 22.8398 92.3781 22.7437L92.7918 22.6919C92.8213 22.6919 92.8434 22.7216 93.0723 22.766C93.4047 22.6035 93.4195 22.5369 93.5967 22.5222L93.582 22.3374C92.4445 22.5591 92.9025 22.4113 91.4771 22.5369L91.4105 22.5443L91.3959 22.3597C93.2275 22.138 92.6145 22.2636 93.2422 22.0865C93.2496 22.1529 93.2719 22.1824 93.3088 22.1824C93.3761 22.1137 93.4644 22.0695 93.5598 22.0568L93.6854 22.0496C94.3279 21.9978 94.5422 22.1234 95.8125 21.7689L95.8197 21.8501L96.0266 21.7466L96.2186 21.732C96.2039 21.5472 96.4846 21.5177 96.5805 21.5103L96.5658 21.3109C94.3354 21.7615 93.7518 21.6359 93.1314 21.8132L93.124 21.732C92.5406 21.8353 92.5186 21.791 92.3707 21.7984C92.3264 21.8058 92.26 21.8427 92.1861 21.9166C92.1787 21.8501 92.1566 21.8205 92.1123 21.8205C92.09 21.8205 92.0828 21.8279 92.0754 21.8279L90.1846 22.138C90.1773 22.0865 90.1551 22.0568 90.1107 22.0642C89.1285 22.271 89.3943 22.308 88.0797 22.4261C88.0207 22.4335 87.9395 22.463 87.8361 22.5294C87.8287 22.4779 87.799 22.4484 87.7326 22.4556L86.9275 22.5222L86.3885 22.655C86.3811 22.6035 86.3516 22.5738 86.2852 22.5812C85.9822 22.6624 85.7164 22.7142 85.5021 22.7289H85.4875C85.3545 22.7437 85.5539 22.6919 85.4506 22.6478L85.2881 22.7437C85.0518 22.766 85.1773 22.7289 84.3648 22.7363C82.9395 22.9136 83.0945 22.9357 82.9395 22.9431L82.4076 22.9062C82.415 22.958 82.3855 22.9949 82.3264 22.9949C81.7209 22.9136 81.4107 22.8175 81.4033 22.7068C81.4846 22.1308 81.6248 21.8353 81.8242 21.8205L81.9277 21.8132L81.8391 22.0052L81.9424 21.9978C82.1344 21.8943 82.223 21.7984 82.2156 21.7097L82.201 21.5103L82.0088 21.5251L81.9941 21.3404C81.9793 21.2001 82.0016 21.0746 82.0531 20.9712L82.4889 20.2695L82.5037 20.4542L82.7105 20.4394L82.6957 20.2548L82.5775 20.0849C82.7326 19.9519 82.8508 19.8781 82.9469 19.8707L82.9395 19.7748L82.6588 19.7968L82.6367 19.5162C83.198 18.3494 83.4639 17.6699 83.449 17.4779L83.6484 17.5591C83.774 17.5517 83.833 17.4779 83.8258 17.3449L83.6336 17.3597L83.6264 17.2785C83.6127 17.1436 83.6383 17.0077 83.7002 16.8871C84.0029 16.5695 84.1434 16.2519 84.1137 15.9195C84.1728 15.9121 84.2023 15.9417 84.2098 16.0082C84.4684 15.8605 84.6678 15.4689 84.8154 14.8191C85.2732 13.9919 85.9232 12.3375 86.7725 9.86343C88.3975 5.49116 88.3309 5.02593 88.5598 3.99194L88.3678 4.00659C88.3826 4.1396 88.3531 4.26519 88.2939 4.38335C88.1609 4.33159 88.0576 4.3021 87.9838 4.30952L87.9764 4.22827C87.9469 3.85151 88.102 3.40112 88.4564 2.86929L88.5451 2.86187L88.7076 3.49702L88.8996 3.48237C88.8922 3.43804 88.9439 3.18687 89.0473 2.72163C89.0398 2.62554 88.966 2.56655 88.8184 2.55913L88.6338 2.67729C88.6189 2.54429 88.6264 2.19722 88.6484 1.64331L88.5523 1.65073C88.39 1.48823 88.3088 1.35522 88.3014 1.24448L87.2451 1.3478C87.2379 1.27397 87.201 1.16323 87.127 1.0228C87.1197 0.926904 87.3561 0.830811 87.8434 0.734912L88.0576 0.816162L88.257 0.697998C88.2645 0.764404 88.3014 0.793896 88.3752 0.786475L88.5746 0.668311C88.582 0.734912 88.6189 0.764404 88.6928 0.756982L88.7889 0.749561L88.774 0.535498C88.6264 0.550146 88.235 0.550146 87.6145 0.528076L87.415 0.661084L87.4076 0.54292C82.452 0.948975 79.6381 1.17808 78.966 1.24448C78.8773 1.2519 78.5303 1.24448 77.9174 1.22964C77.9246 1.31089 77.8508 1.35522 77.7031 1.37007L77.4889 1.27397L76.7652 1.45874C76.5953 1.47339 76.3072 1.46597 75.9084 1.42163C75.7977 1.5103 75.6647 1.56206 75.5022 1.5769C75.4137 1.58413 76.5584 1.51772 77.6219 1.4439C77.5111 1.53257 77.3412 1.58413 77.1049 1.6064C76.9424 1.62104 76.8022 1.59897 76.684 1.53257C76.5215 1.6064 75.9971 1.72456 75.1182 1.90171L74.9041 1.82046L71.4477 2.35229C71.3147 2.28589 71.1596 2.26362 70.9822 2.27847C70.7977 2.29312 70.4875 2.35972 70.0592 2.47788L68.39 3.17202L68.5154 3.37886C68.5967 3.37144 68.7148 3.3271 68.8553 3.24585L69.4461 3.29761L69.3723 3.85151C68.8258 4.09526 68.5082 4.45718 68.4195 4.91499C67.5998 5.2769 67.1936 5.5355 67.1936 5.69058L67.201 5.78647L67.3264 5.77925L67.548 5.66108L67.8064 5.97124L67.8434 6.39956C67.8582 6.53257 66.4771 9.43491 63.7148 15.1072C61.3221 20.5724 60.0664 23.5636 59.9482 24.1027C59.1285 24.3316 58.6559 24.664 58.5154 25.1072C58.5303 25.2474 58.774 25.3435 59.2467 25.3804L59.2687 25.5945L59.0547 25.949L59.0916 26.3775C59.1137 26.599 59.7119 26.7689 60.8863 26.8871C60.8789 26.8132 60.9158 26.7689 60.9971 26.7615C61.0191 27.0273 60.9453 27.5443 60.7754 28.3124L60.901 28.305C61.3885 27.6404 61.6174 27.1824 61.5953 26.9314L61.6986 26.924C61.8168 26.9166 61.9424 27.0496 62.09 27.3375C61.9424 27.3966 61.4254 28.5708 60.5391 30.8677L60.6646 31.0746L60.7902 31.0671C61.876 28.3199 62.5555 26.7984 62.8359 26.5103C64.2615 26.3847 66.7281 26.1337 70.2289 25.757L70.4506 25.624C70.4578 25.698 70.5021 25.7349 70.5834 25.7275L70.8125 25.7052L71.034 25.5724C71.0414 25.6462 71.0857 25.6832 71.167 25.6757L73.8184 25.4468C74.5199 25.3876 74.8523 25.1736 74.8227 24.8117C74.8154 24.7156 75.2289 24.6048 76.0635 24.4867C76.1447 24.4792 76.2629 24.5015 76.4254 24.5531C76.418 24.4867 76.8391 24.4203 77.6811 24.3464C77.7031 23.9033 77.8434 23.6669 78.0945 23.6447L78.0725 23.4306C77.8361 23.4527 77.5701 23.5119 77.26 23.6152C76.7061 23.5857 76.3516 23.5414 76.2039 23.4896C76.0561 23.5708 75.9453 23.6152 75.8641 23.6226L74.0178 23.6816L73.7961 23.7998C73.7887 23.7333 73.7445 23.7039 73.6633 23.7113L73.5598 23.7185L73.3234 23.8369C73.316 23.7703 73.124 23.7185 72.74 23.6669L72.5037 23.8072L72.0459 23.8441L72.0385 23.7259C74.4166 23.4675 75.5908 23.1425 75.5613 22.7585C75.7164 22.7437 75.7977 22.8175 75.8123 22.9726L76.5066 22.7955L76.4846 22.5812L70.7902 22.7363C70.7977 22.8101 70.7607 22.8544 70.6795 22.8619L69.9852 22.8029C69.808 22.8175 69.6604 22.8693 69.5422 22.958L69.2836 22.8619C68.5672 22.921 68.0354 23.0095 67.6809 23.1205C67.1936 23.0835 66.6543 23.0908 66.0561 23.1425L64.7785 23.2533L64.1877 23.1869C64.158 22.8101 64.8893 20.9564 66.3959 17.633C66.8316 16.5103 67.2305 15.8087 67.6145 15.5429C67.6957 15.5355 67.8139 15.565 67.9764 15.6314L68.8848 15.3212L69.35 15.3951C70.133 15.3287 71.0414 15.1072 72.0828 14.723C72.3412 14.7009 72.5332 14.7158 72.6736 14.7748L73.3678 14.6123L75.4357 14.4349C76.3146 14.3611 77.2674 14.1691 78.3014 13.8515L78.2791 13.6375C77.8951 13.6744 77.6957 13.6078 77.6811 13.4527C77.6588 13.1648 77.3781 13.0464 76.8391 13.0908L76.8168 12.8767L77.3855 12.7142L78.8773 12.5886L78.8553 12.3746C78.7961 12.3818 78.4934 12.3746 77.932 12.3523L77.91 12.1234L78.4859 12.0716C78.641 12.057 78.7076 11.983 78.6928 11.8353C77.9174 11.8574 77.5258 11.8205 77.5186 11.7171C72.1123 11.983 69.4018 12.0347 69.3871 11.8648C69.3059 11.8722 69.1949 11.924 69.0473 12.0126L68.907 11.791C70.3396 8.74819 71.1816 7.21187 71.4254 7.18979C71.4328 7.30796 71.3736 7.49995 71.248 7.75854L71.2555 7.85444L71.4846 7.83237C72.0531 6.47339 72.5332 5.77183 72.932 5.74233C74.6307 5.59448 72.6957 5.48374 76.3295 4.91499C76.4771 4.98159 76.5805 5.01108 76.6543 5.00366C78.0797 4.71558 80.0664 4.41284 82.6145 4.10269L82.5996 3.88843L81.2408 4.01401L81.226 3.79976C81.3885 3.78511 81.5215 3.73335 81.6322 3.64468L81.6396 3.76284C81.7135 3.75562 81.8168 3.70386 81.9498 3.61519C82.1861 3.59311 82.3633 3.61519 82.4889 3.68159C82.9615 3.5562 83.3457 3.48218 83.6264 3.45269L84.4756 3.37144C84.6824 3.23862 84.7785 3.12046 84.7711 3.00952L84.7637 2.91362C84.5494 2.93569 84.3059 2.92104 84.0178 2.86929C84.0103 2.75112 84.0693 2.66987 84.2098 2.63296L85.7902 2.4853L86.5141 2.30054C86.5215 2.38179 86.5584 2.41128 86.6174 2.41128C86.6912 2.40405 86.7947 2.35229 86.9275 2.26362C86.9646 2.27104 87.0088 2.27104 87.0457 2.27847C86.9498 2.47788 86.8391 2.76597 86.7281 3.14253L86.5215 3.15737C86.5066 3.01694 86.4697 2.89136 86.4033 2.78062L86.2998 2.78804C84.3797 8.13511 83.5229 10.6242 81.7504 14.7304C81.4254 15.7792 81.1521 16.3626 80.9158 16.4882C80.9232 16.6064 80.9971 16.6654 81.1227 16.6507C81.167 17.1677 81.0488 17.6773 80.7607 18.1794C79.9408 20.5429 79.3943 21.8353 79.1137 22.0716L79.2984 23.1869C79.3057 23.305 79.2467 23.3714 79.1211 23.3863L78.9291 23.4011C78.8996 23.0908 78.7887 22.9431 78.5895 22.9654L78.4859 22.9726C78.2348 23.364 78.0428 23.8146 77.9174 24.339L78.1094 24.3242C78.3678 24.1544 78.4859 23.955 78.4639 23.7259L78.8478 23.689L79.0693 23.7703C78.8922 24.0509 78.8109 24.2726 78.8258 24.4423L78.9291 24.6197L78.6779 25.2105L78.6853 25.3066C78.907 25.2843 79.1506 25.3582 79.4092 25.5132C79.5863 25.4986 79.7785 25.4173 79.9926 25.2769C80.2143 25.2548 81.0414 25.2474 82.4668 25.2474L83.1832 25.0037C84.0547 24.9962 84.1949 25.0185 84.9482 24.9519L85.2584 24.9224L85.4209 24.8117L85.4283 24.9078C86.2186 24.8412 86.2703 24.8929 86.8906 24.9667L86.898 25.0628L86.4623 25.0998L86.4771 25.2843C86.61 25.2695 86.7281 25.2326 86.8242 25.1513C86.935 25.1441 87.0014 25.2031 87.0088 25.3361C86.8316 25.3507 86.6322 25.3951 86.4105 25.4689L86.2186 25.4025C85.9158 25.4837 85.9822 25.5058 85.7754 25.5207L85.4727 25.4617C85.4801 25.5132 85.4506 25.5501 85.3988 25.5501C85.4063 25.6683 85.4727 25.7275 85.5834 25.7201L85.8936 25.6906L87.5111 25.5501L88.124 25.4173C88.1314 25.4689 88.1535 25.4986 88.2053 25.4912L88.5008 25.3804L89.0547 25.3361C89.483 25.2992 89.4756 25.2695 90.4063 25.1218C90.3988 25.0628 90.4209 25.0406 90.4652 25.0332L90.4727 25.1144C91.9867 24.856 92.0826 24.8412 92.3264 24.7599L92.3486 24.8042C92.7252 24.7156 92.5111 24.7378 92.6145 24.664C92.6219 24.7304 92.6439 24.7599 92.6809 24.7599L92.9469 24.7378L92.932 24.5384L92.393 24.531L92.3855 24.5162C92.3633 24.5236 92.3486 24.5236 92.3264 24.531H92.2525V24.5458C91.8906 24.6197 91.8832 24.5679 91.6469 24.5902L90.2953 24.664L90.2881 24.5679L91.0414 24.4646L91.3146 24.4423L91.4697 24.3316L91.4771 24.4277C92.5406 24.339 92.9172 24.6048 97.8359 23.5562C98.102 23.5339 98.0797 23.3124 98.2496 22.8544C98.1595 22.8606 98.0697 22.8401 97.9912 22.7955C97.585 22.9505 97.3707 22.8767 96.5879 23.0023C96.5215 23.0097 96.4697 22.9505 96.4475 22.8324L96.44 22.7511L97.1934 22.7732C97.3338 22.7585 97.607 22.7363 98.0133 22.5074C98.0133 22.5738 97.8582 22.6107 97.9467 22.6035H97.9469V22.6035ZM61.5805 23.1869L61.2334 23.2164C61.2186 23.0761 61.4033 22.5443 61.7873 21.6359L62.0162 21.6138C62.0236 21.8279 61.8832 22.3523 61.5805 23.1869V23.1869ZM62.0016 21.5029L61.9941 21.407C61.9867 21.2888 62.0605 21.2076 62.223 21.1707L62.2305 21.2666C62.2379 21.407 62.1639 21.4882 62.0016 21.5029ZM66.6174 25.0701L66.6248 25.1662L66.0488 25.2179L66.0414 25.1218L66.6174 25.0701ZM65.9232 25.0111C65.9307 25.1292 65.7533 25.2623 65.3693 25.3951L64.6602 25.3435L64.4313 25.3656L64.4092 25.1513L65.9232 25.0111ZM70.5908 3.52651L70.2438 3.5562L70.2363 3.43804C70.2289 3.31987 70.2955 3.23862 70.4432 3.20171L70.5688 3.19429L70.8051 3.29019C70.8123 3.43062 70.7459 3.51187 70.5908 3.52651ZM75.8715 2.49253L75.9822 2.4853L75.9971 2.69936L75.6795 2.72886C75.6721 2.61069 75.7311 2.52964 75.8715 2.49253V2.49253ZM74.542 2.95796L74.0178 2.89878L74.0104 2.80288C74.6973 2.7437 74.9262 2.66987 75.3471 2.55171C75.3545 2.63296 75.4283 2.66245 75.5613 2.6478L75.576 2.86187L75.3693 2.88413C75.2068 2.89878 75.0664 2.87671 74.9482 2.81011C74.8227 2.89136 74.6898 2.94312 74.542 2.95796V2.95796ZM75.1994 4.87085L75.192 4.77476L76.0414 4.69351L76.0488 4.7896L75.1994 4.87085ZM76.1078 4.13218L76.1004 4.01401L76.5141 3.9771L76.5215 4.09526L76.1078 4.13218ZM76.2039 2.68472L76.093 2.69194L76.1891 2.46304L77.1344 2.37437L77.1418 2.49253C76.898 2.51479 76.5805 2.5812 76.2039 2.68472ZM76.684 4.723L76.6691 4.50894L77.0828 4.47202C77.223 4.45718 77.2969 4.52358 77.3043 4.67144L76.684 4.723ZM79.1875 1.31089L78.6559 1.45874L78.5598 1.46597C78.3088 1.48823 77.9838 1.48081 77.5996 1.4439C78.2865 1.39956 78.9439 1.3478 79.1875 1.31089V1.31089ZM78.6189 3.67436L78.6264 3.77026L77.8951 3.83686L77.8877 3.74077L78.6189 3.67436ZM79.8154 4.24292C79.808 4.15444 79.6676 4.09526 79.3797 4.06577L78.6484 4.27261L78.0871 4.29468C77.9615 4.20601 77.8951 4.14702 77.8877 4.10269L78.5377 4.1396L80 3.90327L80.7459 3.93276L80.7533 4.05093C80.384 4.08784 80.0738 4.15444 79.8154 4.24292V4.24292ZM87.3412 2.30054C87.4299 2.30796 87.4889 2.30796 87.5111 2.30796C87.7695 2.05679 88.0576 1.85737 88.39 1.71714C88.124 2.88413 87.7105 3.74819 87.1418 4.30952L86.7281 4.05835C87.0754 3.17944 87.2822 2.59604 87.3412 2.30054ZM86.0709 4.47925L86.1742 4.47202C86.034 4.73784 85.9084 4.87808 85.8051 4.8855L85.7828 4.60483C85.8494 4.60483 85.9453 4.5605 86.0709 4.47925V4.47925ZM85.2512 6.43647C85.4506 5.63882 85.6426 5.18843 85.8197 5.07026L85.8271 5.16616C85.7238 5.90464 85.5613 6.29624 85.3471 6.32573L85.384 6.79097C85.2068 7.04214 85.1256 7.23413 85.1328 7.38179L85.0295 7.38921L84.9705 6.74663C85.0887 6.73198 85.1846 6.62847 85.2512 6.43647V6.43647ZM84.9336 7.49995C84.9408 7.61069 84.867 7.86929 84.7193 8.26811L84.616 8.27554L84.5937 7.99487C84.7342 7.66987 84.8523 7.50737 84.9334 7.49995H84.9336ZM78.9734 24.7968L78.966 24.7156L79.158 24.7009L79.1803 24.9816C79.0768 24.989 79.0029 24.9298 78.9734 24.7968V24.7968ZM87.4889 25.0185C87.4814 24.9519 87.452 24.9224 87.3855 24.9298L86.9055 24.9742L86.898 24.8781H86.9424L88.0797 24.7822L88.0871 24.8781C87.7549 24.8929 87.5555 24.9447 87.4889 25.0185V25.0185ZM86.9203 24.7822C86.9647 24.8042 86.9424 24.8265 86.9203 24.8412C86.898 24.8337 86.8686 24.8117 86.9203 24.7822ZM86.9793 23.4527L86.3441 23.5044L86.3367 23.4083L86.9129 23.3568L87.415 23.2312C87.4225 23.2902 87.452 23.3124 87.5186 23.305C88.1168 23.2017 88.0576 23.172 88.3457 23.1499C88.4416 23.1425 88.5008 23.2017 88.5082 23.3199L86.9793 23.4527V23.4527ZM89.2023 23.2607C88.8479 23.2238 88.8258 23.1943 88.5746 23.2164L88.5672 23.1351L89.1359 23.0835L89.1434 23.1648C89.0842 23.172 89.2984 23.1869 89.2023 23.2607ZM89.2467 23.1574L89.2393 23.0761L89.5494 23.0464L89.5568 23.1277L89.2467 23.1574ZM89.9336 23.0982L89.9262 23.0169C89.9779 23.0097 90.0518 22.9726 90.1477 22.8988C90.3027 22.8841 90.384 22.9874 90.3988 23.1056L89.9336 23.0982ZM90.8125 22.9874L90.8051 22.8914L91.1816 22.8619L91.1891 22.958L90.8125 22.9874ZM91.3367 22.9431C91.3295 22.8324 91.3736 22.766 91.4697 22.7511L91.5953 22.9136C91.5879 22.8619 91.61 22.8324 91.6543 22.825L91.7504 23.0023L91.3367 22.9431ZM98.6041 22.0865L98.6115 22.0791V22.0716C98.6115 22.0716 98.6041 22.0791 98.6041 22.0865ZM98.7371 21.9904C98.7961 21.9535 98.8258 21.9166 98.6854 21.8945C98.6189 21.9683 98.7592 21.9904 98.6115 21.9978L98.6189 22.0642C98.6336 22.0496 98.6707 22.0273 98.7002 22.0052L98.6189 22.0716V22.0791L98.4639 22.2785L98.774 22.1677H98.8109L98.7961 21.983L98.7371 21.9904V21.9904ZM99.2762 22.4115L99.2172 22.4187L99.2318 22.6035L99.6676 22.5666C99.6604 22.4484 99.3723 22.4115 99.2762 22.4115V22.4115Z" fill="#F9DC3E"/>
</svg>
