<svg width="100" height="80" viewBox="0 0 100 80" fill="none" xmlns="http://www.w3.org/2000/svg">
<path fill-rule="evenodd" clip-rule="evenodd" d="M20.7703 0.169556C15.0645 0.169556 10.8424 5.1637 11.0314 10.5797C11.2129 15.783 10.9771 22.5221 9.28066 28.0178C7.57812 33.5289 4.70078 37.0213 0 37.4696V42.5305C4.70078 42.9797 7.57812 46.4703 9.28047 51.9823C10.9771 57.478 11.2127 64.217 11.0312 69.4203C10.8422 74.8356 15.0643 79.8305 20.7711 79.8305H79.2373C84.9432 79.8305 89.1645 74.8364 88.9754 69.4203C88.7939 64.217 89.0297 57.478 90.7262 51.9823C92.4287 46.4703 95.299 42.9783 100 42.5305V37.4696C95.2992 37.0203 92.4289 33.5297 90.7262 28.0178C89.0295 22.5229 88.7939 15.783 88.9754 10.5797C89.1645 5.16448 84.9432 0.169556 79.2373 0.169556H20.7695H20.7703ZM67.7967 49.2061C67.7967 56.6637 62.234 61.1866 53.0025 61.1866H37.2881C36.8386 61.1866 36.4075 61.008 36.0896 60.6901C35.7717 60.3723 35.5932 59.9411 35.5932 59.4916V20.5086C35.5932 20.0591 35.7717 19.628 36.0896 19.3101C36.4075 18.9923 36.8386 18.8137 37.2881 18.8137H52.9131C60.6105 18.8137 65.6623 22.9832 65.6623 29.3848C65.6623 33.878 62.2639 37.9004 57.9344 38.6051V38.8395C63.8281 39.486 67.7967 43.568 67.7967 49.2061V49.2061ZM51.2891 24.1865H42.3289V36.8428H49.8756C55.7096 36.8428 58.9264 34.4936 58.9264 30.2946C58.9258 26.3594 56.1602 24.1865 51.2891 24.1865ZM42.3289 41.8645V55.8119H51.6187C57.693 55.8119 60.9104 53.3746 60.9104 48.7942C60.9104 44.2137 57.6027 41.8637 51.2281 41.8637H42.3289V41.8645Z" fill="#7952B3"/>
</svg>
