<svg width="90" height="100" viewBox="0 0 90 100" fill="none" xmlns="http://www.w3.org/2000/svg">
<path d="M89.0875 0L81.0545 89.9895L44.946 100L8.93699 90.0037L0.912537 0H89.0875Z" fill="#264DE4"/>
<path d="M74.1774 84.2593L81.0421 7.35913H45V92.3484L74.1774 84.2593Z" fill="#2965F1"/>
<path d="M19.3084 40.7402L20.2978 51.7787H45V40.7402H19.3084Z" fill="#EBEBEB"/>
<path d="M45 18.3977H44.9619H17.3205L18.3239 29.4364H45V18.3977Z" fill="#EBEBEB"/>
<path d="M45 80.8931V69.4083L44.9516 69.4212L32.6579 66.1016L31.872 57.2979H25.8982H20.791L22.3375 74.63L44.9492 80.9072L45 80.8931Z" fill="#EBEBEB"/>
<path d="M58.5546 51.7785L57.2733 66.0947L44.9619 69.4177V80.9019L67.5915 74.6301L67.7576 72.7652L70.3515 43.7042L70.6208 40.7401L72.6137 18.3977H44.9619V29.4364H60.5163L59.5119 40.7401H44.9619V51.7785H58.5546Z" fill="white"/>
</svg>
