<svg width="100" height="98" viewBox="0 0 100 98" fill="none" xmlns="http://www.w3.org/2000/svg">
<path d="M50.0002 0.234253C22.3894 0.234253 0 22.6197 0 50.2344C0 72.3262 14.3266 91.0683 34.1933 97.6798C36.692 98.1425 37.6097 96.5952 37.6097 95.2744C37.6097 94.0823 37.563 90.1432 37.5418 85.9653C23.6313 88.9899 20.6961 80.0659 20.6961 80.0659C18.4217 74.2865 15.1446 72.7501 15.1446 72.7501C10.6083 69.6467 15.4865 69.7102 15.4865 69.7102C20.5075 70.0632 23.1513 74.863 23.1513 74.863C27.6108 82.507 34.8482 80.2969 37.7014 79.0197C38.15 75.7877 39.4461 73.5822 40.8758 72.3337C29.7703 71.069 18.0954 66.7817 18.0954 47.6232C18.0954 42.1645 20.0487 37.7039 23.2474 34.2025C22.7282 32.9429 21.0169 27.8576 23.7317 20.9704C23.7317 20.9704 27.9304 19.6265 37.4853 26.0957C41.4734 24.9875 45.7509 24.4322 50.0002 24.4134C54.2495 24.4322 58.5301 24.9875 62.526 26.0957C72.0696 19.6265 76.2624 20.9704 76.2624 20.9704C78.9839 27.8576 77.2718 32.9429 76.7526 34.2025C79.9584 37.7039 81.8983 42.1641 81.8983 47.6232C81.8983 66.8272 70.2014 71.0561 59.0677 72.2937C60.861 73.8454 62.459 76.8884 62.459 81.5529C62.459 88.2429 62.4009 93.6274 62.4009 95.2744C62.4009 96.605 63.3009 98.1641 65.8357 97.6732C85.6915 91.0542 100 72.3188 100 50.2344C100 22.6197 77.6137 0.234253 50.0002 0.234253Z" fill="#161614"/>
<path d="M18.7267 71.4608C18.6169 71.709 18.2255 71.7835 17.8699 71.6133C17.5071 71.4502 17.3032 71.1114 17.4209 70.862C17.5287 70.6063 17.9201 70.5349 18.282 70.7067C18.6455 70.8694 18.8526 71.2114 18.7267 71.4608V71.4608ZM21.1862 73.6552C20.9478 73.8764 20.4815 73.7736 20.1651 73.4242C19.838 73.0756 19.7769 72.6098 20.0188 72.3851C20.2647 72.1643 20.7168 72.2674 21.0447 72.6164C21.3717 72.969 21.4352 73.4321 21.1858 73.6556L21.1862 73.6552ZM22.8736 76.463C22.567 76.6759 22.0658 76.4763 21.7564 76.0316C21.4501 75.5873 21.4501 75.054 21.7631 74.8403C22.0737 74.6266 22.567 74.8187 22.8807 75.2599C23.1866 75.712 23.1866 76.2453 22.8732 76.4634L22.8736 76.463ZM25.7269 79.715C25.4528 80.017 24.8692 79.9362 24.4418 79.5236C24.005 79.1205 23.883 78.5484 24.1579 78.246C24.4351 77.9433 25.0222 78.0284 25.4528 78.4374C25.8869 78.8397 26.0194 79.4162 25.7273 79.715H25.7269ZM29.4146 80.813C29.2942 81.2044 28.7319 81.3824 28.1656 81.2161C27.6001 81.0448 27.2299 80.586 27.3441 80.1903C27.4617 79.7962 28.0264 79.6107 28.597 79.7887C29.1616 79.9593 29.5326 80.4146 29.415 80.813H29.4146ZM33.6121 81.2785C33.6262 81.691 33.1458 82.033 32.5513 82.0404C31.9533 82.0534 31.4698 81.7196 31.4635 81.3142C31.4635 80.8977 31.9329 80.5589 32.5306 80.5491C33.125 80.5373 33.6121 80.8687 33.6121 81.2785V81.2785ZM37.7351 81.1204C37.8065 81.5228 37.3931 81.9361 36.803 82.0459C36.2226 82.1518 35.6853 81.9036 35.6112 81.5047C35.5391 81.0922 35.9602 80.6793 36.5394 80.5722C37.1308 80.4695 37.6598 80.7114 37.7351 81.1204" fill="#161614"/>
</svg>
