<svg width="74" height="100" viewBox="0 0 74 100" fill="none" xmlns="http://www.w3.org/2000/svg">
<path d="M23.8767 77.3359C23.8767 77.3359 20.0554 79.5581 26.5963 80.31C34.5206 81.2139 38.5703 81.0845 47.303 79.4315C47.303 79.4315 49.599 80.8711 52.8051 82.1181C33.2292 90.5079 8.50057 81.632 23.8767 77.3359V77.3359ZM21.4845 66.3875C21.4845 66.3875 17.1985 69.5602 23.7443 70.2371C32.2092 71.1103 38.894 71.1818 50.4616 68.9545C50.4616 68.9545 52.0615 70.5764 54.5773 71.4636C30.9086 78.3846 4.54609 72.0093 21.4845 66.3875" fill="#5382A1"/>
<path d="M41.6507 47.8154C46.4744 53.3687 40.3834 58.3661 40.3834 58.3661C40.3834 58.3661 52.631 52.0435 47.0062 44.1259C41.7529 36.7427 37.724 33.0737 59.5338 20.425C59.5338 20.425 25.2998 28.975 41.6507 47.8151" fill="#E76F00"/>
<path d="M67.5415 85.4341C67.5415 85.4341 70.3694 87.764 64.4269 89.5666C53.1275 92.9898 17.3971 94.0235 7.47127 89.703C3.90333 88.1511 10.5945 85.9969 12.6991 85.5447C14.8941 85.0687 16.1486 85.1576 16.1486 85.1576C12.1806 82.3621 -9.49927 90.6463 5.13646 93.0185C45.0498 99.4913 77.8944 90.104 67.5415 85.4341ZM25.714 55.0437C25.714 55.0437 7.5396 59.3607 19.2782 60.928C24.2345 61.5916 34.1149 61.4416 43.3184 60.6703C50.8399 60.0362 58.3924 58.687 58.3924 58.687C58.3924 58.687 55.7403 59.8228 53.8215 61.133C35.3654 65.9871 -0.288567 63.729 9.97575 58.7637C18.6563 54.5677 25.7143 55.0437 25.7143 55.0437H25.714ZM58.3175 73.2677C77.0793 63.5185 68.4046 54.1496 62.3498 55.412C60.8657 55.7207 60.2041 55.9882 60.2041 55.9882C60.2041 55.9882 60.7551 55.1254 61.8072 54.7519C73.7853 50.5406 82.9974 67.1721 57.9405 73.7591C57.9405 73.7594 58.2309 73.4999 58.3175 73.2677" fill="#5382A1"/>
<path d="M47.0062 0.000289532C47.0062 0.000289532 57.3968 10.3946 37.1513 26.3772C20.9167 39.1985 33.4493 46.5086 37.1446 54.8609C27.6681 46.3109 20.7135 38.7841 25.3793 31.7791C32.2272 21.4957 51.1984 16.5102 47.0062 0" fill="#E76F00"/>
<path d="M27.5578 99.6855C45.5667 100.838 73.2211 99.0459 73.876 90.5247C73.876 90.5247 72.6171 93.7553 58.9927 96.3205C43.6218 99.213 24.6642 98.8754 13.4201 97.0215C13.4204 97.0215 15.7219 98.9266 27.5581 99.6855" fill="#5382A1"/>
</svg>
