<svg width="46" height="100" viewBox="0 0 46 100" fill="none" xmlns="http://www.w3.org/2000/svg">
<path d="M22.687 0.273071L25.3556 5.2852C25.9555 6.21013 26.6055 7.02882 27.371 7.79126C29.6155 10.0077 31.7076 12.3734 33.6331 14.872C38.1547 20.809 41.2044 27.4023 43.3824 34.533C44.6886 38.8889 45.3979 43.3574 45.451 47.8758C45.6697 61.3841 41.0388 72.9833 31.702 82.6232C30.1832 84.1519 28.5425 85.5543 26.7961 86.8166C25.8712 86.8166 25.4337 86.1073 25.0525 85.4542C24.3582 84.2432 23.8962 82.9132 23.6901 81.5326C23.362 79.8984 23.1463 78.2641 23.2526 76.5768V75.8143C23.1776 75.6518 22.362 0.657418 22.687 0.273071V0.273071Z" fill="#599636"/>
<path d="M22.687 0.107501C22.5776 -0.111232 22.4683 0.0543804 22.3589 0.160623C22.412 1.25429 22.0308 2.22922 21.434 3.1604C20.7778 4.08533 19.9091 4.79466 19.0373 5.5571C14.1939 9.75054 10.3817 14.8158 7.32875 20.481C3.26655 28.1054 1.17295 36.2767 0.579241 44.8792C0.307386 47.9821 1.56042 58.9313 2.53847 62.0904C5.20703 70.4773 10.0004 77.5049 16.2094 83.6045C17.7342 85.0731 19.3654 86.4355 21.0528 87.7448C21.5433 87.7448 21.5965 87.3073 21.709 86.9823C21.924 86.287 22.088 85.5768 22.1995 84.8575L23.2932 76.6893L22.687 0.107501Z" fill="#6CAC48"/>
<path d="M25.3556 90.1352C25.4649 88.8853 26.0649 87.8479 26.718 86.8136C26.0618 86.5417 25.5743 86.0011 25.1931 85.3981C24.8643 84.8271 24.5922 84.2253 24.3806 83.6013C23.6182 81.314 23.4557 78.9142 23.237 76.5769V75.1614C22.9651 75.3801 22.9089 77.23 22.9089 77.5049C22.7498 79.9753 22.422 82.4319 21.9277 84.8575C21.7652 85.8387 21.6558 86.8167 21.0527 87.6885C21.0527 87.7979 21.0527 87.9072 21.1059 88.0697C22.087 90.957 22.3558 93.8974 22.5214 96.894V97.9877C22.5214 99.2938 22.4683 99.0189 23.5526 99.4563C23.99 99.6188 24.4775 99.6751 24.915 100C25.2431 100 25.2962 99.7282 25.2962 99.5095L25.1337 97.7127V92.7006C25.0806 91.8257 25.2431 90.957 25.3524 90.1383L25.3556 90.1352Z" fill="#C2BFBF"/>
</svg>
