<svg width="128" height="113" viewBox="0 0 128 113" fill="none" xmlns="http://www.w3.org/2000/svg">
<path d="M80.4595 74.6047H71.6825L70.9494 73.8717V53.3259C70.9494 49.6705 69.513 46.8372 65.1047 46.7382C62.8361 46.6787 60.2406 46.7382 57.4669 46.8471L57.0508 47.2731V55.5746V73.8618L56.3177 74.5948H47.5407L46.8076 73.8618V38.7636L47.5407 38.0305H67.294C74.9714 38.0305 81.1926 44.2517 81.1926 51.9291V73.8717L80.4595 74.6047Z" fill="#014847"/>
<path d="M34.5931 94.051H33.3845L27.3516 88.018V86.8095L36.5744 77.5867H42.964L43.8159 78.4386V84.8282L34.5931 94.051Z" fill="#05BDBA"/>
<path d="M27.3516 25.8161V24.6075L33.3845 18.5745H34.5931L43.8159 27.7973V34.1869L42.964 35.0389H36.5744L27.3516 25.8161Z" fill="#05BDBA"/>
<path d="M35.8412 61.449H0.73307L0 60.7159V51.9191L0.73307 51.186H35.8412L36.5743 51.9191V60.7159L35.8412 61.449Z" fill="#05BDBA"/>
<path d="M127.277 61.449H92.1686L91.4355 60.7159V51.9191L92.1686 51.186H127.277L128.01 51.9191V60.7159L127.277 61.449Z" fill="#05BDBA"/>
<path d="M58.9429 27.0642V0.73307L59.6759 0H68.4728L69.2059 0.73307V27.0642L68.4728 27.7972H59.6759L58.9429 27.0642Z" fill="#05BDBA"/>
<path d="M58.9429 111.902V85.571L59.6759 84.8379H68.4728L69.2059 85.571V111.902L68.4728 112.635H59.6759L58.9429 111.902Z" fill="#05BDBA"/>
</svg>
