<svg width="92" height="100" viewBox="0 0 92 100" fill="none" xmlns="http://www.w3.org/2000/svg">
<path d="M41.9057 1.06686C44.3852 -0.352413 47.6148 -0.358823 50.0922 1.06686C62.5558 8.10944 75.0233 15.141 87.4848 22.1878C89.8286 23.5081 91.3964 26.1166 91.3726 28.8173V71.1881C91.39 74.0007 89.6673 76.6715 87.1945 77.9618C74.7719 84.9656 62.3557 91.9779 49.9352 98.9816C47.4044 100.429 44.1099 100.317 41.6582 98.7516C37.9339 96.5926 34.2032 94.4443 30.4785 92.2874C29.7174 91.8336 28.8594 91.4725 28.322 90.7346C28.7971 90.0942 29.6465 90.0144 30.3368 89.7348C31.8914 89.2405 33.3192 88.447 34.7474 87.677C35.1085 87.4298 35.5494 87.5245 35.8956 87.7457C39.0803 89.5717 42.2369 91.4508 45.4323 93.2593C46.114 93.6529 46.8042 93.1304 47.3869 92.8056C59.5773 85.9158 71.7827 79.052 83.971 72.1601C84.4226 71.9428 84.6723 71.4634 84.6356 70.9688C84.6441 56.9915 84.6377 43.0118 84.6398 29.0345C84.6915 28.4732 84.3667 27.9572 83.8592 27.7274C71.4796 20.7557 59.1065 13.7733 46.7291 6.79986C46.5146 6.65243 46.2606 6.57333 46.0004 6.57295C45.7401 6.57257 45.4859 6.65093 45.271 6.79773C32.8936 13.7733 20.5226 20.7622 8.14519 27.7335C7.63945 27.9636 7.30004 28.4711 7.36023 29.0345C7.36237 43.0118 7.36023 56.9915 7.36023 70.9709C7.33877 71.2123 7.39178 71.4544 7.51213 71.6647C7.63248 71.8751 7.81439 72.0435 8.03336 72.1473C11.3363 74.0203 14.6436 75.8801 17.9487 77.7467C19.8106 78.7489 22.0968 79.3444 24.1482 78.5765C25.9586 77.9273 27.2275 76.0799 27.193 74.1577C27.2101 60.2621 27.1844 46.3642 27.2058 32.4707C27.1606 31.8538 27.7457 31.3442 28.3455 31.4022C29.9325 31.3915 31.5217 31.3809 33.1087 31.4065C33.7711 31.3916 34.227 32.0558 34.1451 32.6773C34.1387 46.6609 34.1622 60.6449 34.1344 74.6286C34.1387 78.3554 32.6076 82.4105 29.1604 84.234C24.9136 86.434 19.6646 85.9674 15.4691 83.8579C11.8371 82.0451 8.37099 79.9057 4.8034 77.9636C2.32422 76.6804 0.610052 73.9989 0.627504 71.1885V28.8173C0.601505 26.0606 2.23162 23.4048 4.64848 22.1038C17.069 15.0943 29.4873 8.07952 41.9057 1.06686Z" fill="#8CC84B"/>
<path d="M52.7413 30.4174C58.1584 30.0687 63.9576 30.2108 68.8323 32.8795C72.6065 34.9245 74.6989 39.2165 74.7655 43.4095C74.6601 43.9751 74.0688 44.2871 73.5289 44.2483C71.9572 44.2461 70.3851 44.2696 68.8134 44.2376C68.1467 44.2632 67.7592 43.6485 67.6755 43.0591C67.2239 41.0529 66.1298 39.0659 64.2415 38.0982C61.3428 36.6469 57.9817 36.7199 54.8209 36.7502C52.5134 36.8727 50.032 37.0725 48.0771 38.4294C46.5763 39.4573 46.1204 41.5322 46.6561 43.2033C47.1611 44.4032 48.5462 44.7903 49.6794 45.1472C56.2077 46.8546 63.1257 46.6847 69.5293 48.9317C72.1805 49.8477 74.774 51.6285 75.6815 54.4043C76.8686 58.1247 76.3482 62.5717 73.7013 65.5584C71.5548 68.0162 68.4284 69.3539 65.3103 70.0804C61.1622 71.0054 56.8574 71.0289 52.6448 70.6182C48.6836 70.1666 44.5615 69.126 41.5036 66.427C38.8887 64.1565 37.6115 60.6189 37.7383 57.2044C37.7686 56.6278 38.3427 56.2257 38.8951 56.2731C40.4779 56.2603 42.0606 56.256 43.6434 56.2752C44.2755 56.23 44.7442 56.7763 44.7766 57.3722C45.0687 59.2837 45.787 61.2899 47.4538 62.4231C50.6706 64.4984 54.7069 64.3563 58.3902 64.4144C61.4418 64.2791 64.8673 64.2381 67.3575 62.2212C68.6713 61.0708 69.0606 59.1462 68.7055 57.4904C68.3209 56.0925 66.8585 55.4411 65.6027 55.0151C59.1581 52.9765 52.1629 53.7163 45.7806 51.4109C43.1896 50.4952 40.6841 48.7639 39.6886 46.1021C38.2996 42.3347 38.9361 37.6747 41.8605 34.7888C44.7118 31.9182 48.8279 30.8127 52.7413 30.4171V30.4174Z" fill="#8CC84B"/>
</svg>
