<svg width="60" height="34" viewBox="0 0 60 34" fill="none" xmlns="http://www.w3.org/2000/svg">
<path d="M14.3781 8.84802H1.10601C0.495491 8.84802 0 9.34351 0 9.95403C0 10.5645 0.495491 11.06 1.10601 11.06H14.3781C14.9886 11.06 15.4841 10.5645 15.4841 9.95403C15.4841 9.34351 14.9864 8.84802 14.3781 8.84802Z" fill="#131417"/>
<path d="M12.1661 15.4841H1.10601C0.495491 15.4841 0 15.9796 0 16.5901C0 17.2006 0.495491 17.6961 1.10601 17.6961H12.1661C12.7766 17.6961 13.2721 17.2006 13.2721 16.5901C13.2721 15.9796 12.7744 15.4841 12.1661 15.4841Z" fill="#131417"/>
<path d="M9.95406 22.1202H1.10601C0.495491 22.1202 0 22.6179 0 23.2262C0 23.8345 0.495491 24.3322 1.10601 24.3322H9.95406C10.5646 24.3322 11.0601 23.8345 11.0601 23.2262C11.0601 22.6179 10.5624 22.1202 9.95406 22.1202Z" fill="#131417"/>
<path d="M59.0142 1.68334C58.1383 0.597244 56.8155 0 55.3003 0H26.5441C23.611 0 20.7265 2.33367 20.1116 5.20044L15.3292 27.5197C15.0107 29.0017 15.3181 30.4174 16.1941 31.4991C17.07 32.583 18.3884 33.1802 19.9081 33.1802H48.6642C51.5979 33.1802 54.4835 30.8465 55.0968 27.9775L59.8786 5.66054C60.1932 4.1807 59.893 2.76502 59.0142 1.68334ZM53.8691 8.5251L43.2492 19.1494L48.0227 24.6086C48.4275 25.0687 48.3811 25.7655 47.9188 26.1681C47.7059 26.3517 47.452 26.4424 47.1927 26.4424C46.8808 26.4424 46.5805 26.3141 46.3588 26.0636L41.6803 20.7172L41.6709 20.7266C40.6689 21.7286 39.4147 22.2656 38.1118 22.2656C37.9725 22.2656 37.8309 22.2567 37.6893 22.244C36.2333 22.1135 34.937 21.3365 34.0417 20.0536L33.4129 19.156L24.3326 26.4175C24.1291 26.5818 23.8836 26.657 23.6425 26.657C23.3173 26.657 22.9966 26.5176 22.7776 26.2411C22.3971 25.7633 22.4745 25.0687 22.9501 24.6883L32.141 17.3372L25.8036 8.28565C25.4497 7.78795 25.5714 7.0978 26.0735 6.7483C26.5712 6.3988 27.2636 6.52046 27.613 7.02038L35.8506 18.7839C36.3638 19.5254 37.0937 19.9717 37.8812 20.0386C38.6709 20.1116 39.4672 19.8019 40.1059 19.1627L40.9537 18.3155C40.9708 18.2978 40.9819 18.2712 41.0002 18.2557C41.009 18.2469 41.0217 18.2469 41.035 18.2386L52.314 6.9612C52.7454 6.52986 53.4516 6.52986 53.8779 6.9612C54.2999 7.39697 54.2999 8.09154 53.8691 8.5251Z" fill="#131417"/>
</svg>
