<svg width="50" height="38" viewBox="0 0 50 38" fill="none" xmlns="http://www.w3.org/2000/svg">
<path d="M10.8525 18.4278V36.985H3.40167C1.80795 36.985 0.5 35.6971 0.5 34.1159V10.669L10.8525 18.4278Z" fill="black" stroke="black"/>
<path d="M46.5934 36.985H39.1426V18.4278L49.4951 10.669V34.0834C49.4951 35.6743 48.214 36.985 46.5934 36.985Z" fill="black" stroke="black"/>
<path d="M49.4991 9.41916L39.1426 17.1782V3.66885L42.1158 1.43127C42.116 1.43113 42.1162 1.43098 42.1164 1.43084C45.1617 -0.846032 49.4991 1.31492 49.4991 5.1202V9.41916Z" fill="black" stroke="black"/>
<path d="M11.8516 17.9273V4.41979L24.6988 14.061L24.999 14.2862L25.2991 14.0609L38.1423 4.41997V17.9273L24.9989 27.7623L11.8516 17.9273Z" fill="black" stroke="black"/>
<path d="M10.8565 17.178L0.5 9.41893V5.11997C0.5 1.34511 4.83918 -0.841007 7.88281 1.43069C7.88307 1.43088 7.88333 1.43108 7.88358 1.43127L10.8565 3.66862V17.178Z" fill="black" stroke="black"/>
</svg>
