<svg width="50" height="30" viewBox="0 0 50 30" fill="none" xmlns="http://www.w3.org/2000/svg">
<path d="M12.0283 0H47.8448C48.4836 0 49.0452 0.260424 49.4317 0.679544C49.8224 1.09866 50.0421 1.68055 49.9933 2.3194L48.1947 26.9335C48.1581 27.4137 47.979 27.8613 47.6983 28.2357C47.6413 28.3577 47.564 28.4676 47.4582 28.5612C47.389 28.6222 47.3117 28.6751 47.2303 28.7117C46.8031 29.0495 46.27 29.2529 45.7085 29.2529H9.89204C9.25319 29.2529 8.69165 28.9925 8.30101 28.5734C7.91038 28.1543 7.69472 27.5724 7.73948 26.9335L8.24812 22.7912H10.0263L9.58686 25.9569L23.0597 13.3711L11.2593 3.14136L11.1413 4.74053H9.35899L9.53396 2.3194C9.57872 1.68055 9.8839 1.09866 10.3356 0.679544C10.7872 0.260424 11.3895 0 12.0283 0ZM0.891138 20.2561C0.398774 20.2561 0 19.8573 0 19.365C0 18.8726 0.398774 18.4738 0.891138 18.4738H12.6468C13.1392 18.4738 13.538 18.8726 13.538 19.365C13.538 19.8573 13.1392 20.2561 12.6468 20.2561H0.891138ZM5.298 14.7384C4.80564 14.7384 4.40686 14.3396 4.40686 13.8472C4.40686 13.3549 4.80564 12.9561 5.298 12.9561H15.4952C15.9876 12.9561 16.3864 13.3549 16.3864 13.8472C16.3864 14.3396 15.9876 14.7384 15.4952 14.7384H5.298ZM0.891138 9.22064C0.398774 9.22064 0 8.82186 0 8.3295C0 7.83713 0.398774 7.43836 0.891138 7.43836H12.6468C13.1392 7.43836 13.538 7.83713 13.538 8.3295C13.538 8.82186 13.1392 9.22064 12.6468 9.22064H0.891138ZM24.3618 14.5024L10.4739 27.4747H45.2771L33.8551 14.5024L29.5256 17.9774C29.1878 18.25 28.7077 18.2663 28.3862 17.9896L24.3618 14.5024ZM35.2956 13.3508L46.4857 26.0587L48.1662 3.02743L35.2956 13.3508ZM12.4963 1.77821L29.0698 16.1463L46.9862 1.77821H12.4963Z" fill="black"/>
</svg>
