<svg width="43" height="51" viewBox="0 0 43 51" fill="none" xmlns="http://www.w3.org/2000/svg">
<path d="M9.44216 41.4113C8.29269 41.4113 8.29269 39.6627 9.44216 39.6627H19.4834C19.4639 39.951 19.4531 40.2423 19.4531 40.5365C19.4531 40.8307 19.4639 41.122 19.4834 41.4113H9.44216ZM12.8935 25.0793H11.2143V27.0302H8.63186V18.9575H12.7C14.5512 18.9575 15.4769 19.9516 15.4769 21.9407C15.4769 23.0344 15.2354 23.8438 14.7536 24.3687C14.5727 24.5671 14.3225 24.7352 14.0048 24.873C13.6862 25.0108 13.3158 25.0793 12.8935 25.0793ZM11.2143 21.0238V23.0129H11.8085C12.1184 23.0129 12.3452 22.9807 12.4869 22.9162C12.6286 22.8517 12.7 22.7031 12.7 22.4705V21.5663C12.7 21.3337 12.6286 21.1851 12.4869 21.1206C12.3452 21.0561 12.1184 21.0238 11.8085 21.0238H11.2143ZM16.4455 27.0302V18.9575H20.062C21.5175 18.9575 22.5164 19.2674 23.0589 19.8871C23.6014 20.5068 23.8721 21.5429 23.8721 22.9934C23.8721 24.4449 23.6014 25.48 23.0589 26.0997C22.5164 26.7194 21.5175 27.0302 20.062 27.0302H16.4455ZM20.1011 21.0238H19.0289V24.9629H20.1011C20.454 24.9629 20.7101 24.9229 20.8694 24.8408C21.0287 24.7586 21.1079 24.572 21.1079 24.2787V21.7081C21.1079 21.4158 21.0287 21.2281 20.8694 21.147C20.7101 21.0649 20.454 21.0238 20.1011 21.0238ZM29.7495 24.0334H27.5532V27.0302H24.9698V18.9575H30.2656L29.943 21.0238H27.5532V22.1088H29.7495V24.0334ZM26.9814 3.37127V6.21562C26.9814 12.6335 28.4778 13.0059 33.7335 13.0059H35.8868L26.9814 3.37127ZM36.2015 14.7018H34.102C28.1377 14.7018 25.2855 14.302 25.2855 6.2684V2.69586H6.55382C4.43277 2.69586 2.69586 4.43375 2.69586 6.55382V32.4355H22.4255C21.972 32.9701 21.5624 33.5439 21.2027 34.1499H2.69586V42.9302C2.69586 45.0435 4.44059 46.7882 6.55382 46.7882H21.1216C21.4666 47.3864 21.8605 47.9533 22.2965 48.4831H6.55382C3.50518 48.4831 1 45.9789 1 42.9302V6.55382C1 3.49736 3.49736 1 6.55382 1H26.7214C26.8527 0.999961 26.9822 1.0304 27.0997 1.08891C27.2173 1.14743 27.3196 1.23243 27.3987 1.33722L37.6687 12.4488C37.8827 12.6804 37.8974 12.9042 37.8974 13.1838V29.4934C37.3549 29.2021 36.788 28.9499 36.2015 28.7398V14.7018Z" fill="black" stroke="black" stroke-width="0.2"/>
<path fill-rule="evenodd" clip-rule="evenodd" d="M31.9811 30.0737C37.7597 30.0737 42.4446 34.7586 42.4446 40.5372C42.4446 46.3149 37.7597 50.9998 31.9811 50.9998C26.2025 50.9998 21.5176 46.3149 21.5176 40.5372C21.5176 34.7586 26.2025 30.0737 31.9811 30.0737Z" fill="black"/>
<path d="M34.0295 35.8496L33.661 40.5169L35.3569 39.9236C36.478 39.4935 37.6314 40.2872 36.7624 41.2744C35.7048 42.4913 34.0979 44.1627 32.9289 45.276C32.2027 46.0013 31.7824 46.0081 31.0542 45.2819C29.76 44.0112 28.4894 42.5998 27.2246 41.2871C26.3204 40.3038 27.4494 39.4739 28.6203 39.9236L30.2976 40.511C30.1755 38.9197 30.022 37.3988 29.9291 35.8095C29.9291 35.5172 30.1735 35.2827 30.4589 35.2612C31.4667 35.2612 32.4959 35.2377 33.5007 35.2612C33.7861 35.2827 34.0305 35.5172 34.0305 35.8095L34.0295 35.8496Z" fill="black"/>
</svg>
