<svg width="50" height="41" viewBox="0 0 50 41" fill="none" xmlns="http://www.w3.org/2000/svg">
<path fill-rule="evenodd" clip-rule="evenodd" d="M41.8281 2.89253L42.882 4.28015C43.1587 4.64638 43.0895 5.17131 42.7233 5.44802L41.6043 6.29849C41.8077 6.8397 41.9379 7.41754 41.9908 8.00758L43.2645 8.18256C43.7203 8.2436 44.0377 8.6668 43.9766 9.12255L43.7406 10.852C43.6796 11.3077 43.2564 11.6292 42.8006 11.5641L41.4089 11.3728C41.1607 11.9141 40.8433 12.4105 40.4689 12.8541L41.2502 13.8795C41.5269 14.2457 41.4537 14.7707 41.0875 15.0474L39.6999 16.1013C39.3336 16.378 38.8087 16.3048 38.532 15.9426L37.6815 14.8236C37.1362 15.027 36.5625 15.1573 35.9684 15.2102L35.7934 16.4838C35.7323 16.9396 35.3091 17.257 34.8534 17.1959L33.124 16.9599C32.6682 16.8989 32.3508 16.4757 32.4118 16.0199L32.6031 14.6282C32.0659 14.38 31.5654 14.0626 31.1219 13.6923L30.0964 14.4695C29.7302 14.7463 29.2053 14.6771 28.9286 14.3108L27.8746 12.9232C27.5979 12.557 27.6671 12.0321 28.0333 11.7554L29.1524 10.9049C28.9489 10.3596 28.8187 9.78584 28.7658 9.1958L27.4921 9.02082C27.0364 8.95978 26.7149 8.53658 26.78 8.08083L27.016 6.3514C27.0811 5.89564 27.5002 5.57824 27.956 5.63928L29.3477 5.83053C29.5959 5.29339 29.9133 4.79287 30.2836 4.34932L29.5064 3.32387C29.2297 2.96171 29.2989 2.43678 29.6651 2.16007L31.0527 1.10613C31.4189 0.829425 31.9439 0.898602 32.2206 1.26483L33.071 2.38388C33.6123 2.18042 34.1901 2.0502 34.7801 1.9973L34.9551 0.723624C35.0162 0.267868 35.4394 -0.0536023 35.8951 0.00743641L37.6245 0.243453C38.0803 0.304492 38.4018 0.727693 38.3367 1.18345L38.1454 2.57513C38.6866 2.82336 39.1831 3.14076 39.6307 3.51513L40.6561 2.7379C41.0224 2.45712 41.5473 2.5263 41.8281 2.89253ZM12.0737 27.3121V20.5978H15.5326C16.1755 20.5978 16.6638 20.6507 17.0016 20.7647C17.3393 20.8745 17.616 21.078 17.8195 21.3751C18.027 21.6762 18.1328 22.0383 18.1328 22.4656C18.1328 22.8359 18.0515 23.1615 17.8928 23.43C17.7341 23.7027 17.5143 23.9224 17.2376 24.0893C17.0626 24.1951 16.8185 24.2846 16.5092 24.3538C16.7574 24.4392 16.9365 24.5165 17.0464 24.602C17.1237 24.6589 17.2335 24.777 17.376 24.956C17.5184 25.135 17.616 25.2775 17.6649 25.3751L18.6741 27.3162H16.3302L15.2233 25.2693C15.0809 25.0048 14.9588 24.8299 14.849 24.7525C14.6984 24.6508 14.5275 24.5979 14.3403 24.5979H14.1572V27.3162H12.0737V27.3121ZM19.3902 39.003H15.5163L14.9588 40.8261H11.4674L15.6303 29.7618H19.374L23.5205 40.8261H19.9396L19.3902 39.003ZM18.6659 36.6063L17.4573 32.6265L16.2447 36.6063H18.6659ZM24.3262 29.7618H30.015C31.2562 29.7618 32.184 30.0548 32.7984 30.6448C33.4129 31.2348 33.7221 32.0772 33.7221 33.1637C33.7221 34.2827 33.3844 35.1576 32.713 35.7883C32.0415 36.4191 31.012 36.7324 29.6325 36.7324H27.7566V40.8261H24.3262V29.7618ZM27.7566 34.4902H28.5989C29.2622 34.4902 29.7302 34.3763 29.9988 34.1444C30.2673 33.9165 30.4016 33.6194 30.4016 33.2654C30.4016 32.9195 30.2836 32.6225 30.0517 32.3824C29.8197 32.1423 29.3802 32.0202 28.7373 32.0202H27.7566V34.4902ZM35.1057 29.7618H38.536V40.8261H35.1057V29.7618ZM14.1572 23.3242H15.0321C15.1257 23.3242 15.3088 23.2917 15.5814 23.2306C15.7198 23.2022 15.8337 23.133 15.9192 23.019C16.0087 22.9051 16.0494 22.7749 16.0494 22.6284C16.0494 22.4127 15.9802 22.2418 15.8419 22.1279C15.7035 22.0099 15.4471 21.9529 15.0687 21.9529H14.1572V23.3242ZM19.0728 20.5978H24.6274V22.0302H21.1563V23.1004H24.3751V24.4677H21.1563V25.7902H24.7291V27.308H19.0728V20.5978ZM25.2215 25.0903L27.191 24.9682C27.2317 25.2897 27.3212 25.5298 27.4514 25.6966C27.6671 25.9652 27.9723 26.1035 28.367 26.1035C28.66 26.1035 28.8919 26.0344 29.0506 25.896C29.2093 25.7576 29.2907 25.5949 29.2907 25.4118C29.2907 25.2368 29.2134 25.0821 29.0628 24.9438C28.9123 24.8054 28.5583 24.6793 28.0008 24.5531C27.0933 24.3497 26.4463 24.077 26.0557 23.7393C25.665 23.4015 25.4697 22.9702 25.4697 22.4453C25.4697 22.0994 25.5714 21.7738 25.7708 21.4687C25.9702 21.1635 26.2713 20.9193 26.6742 20.7443C27.077 20.5694 27.6264 20.4839 28.3263 20.4839C29.1849 20.4839 29.836 20.6426 30.2877 20.9641C30.7353 21.2855 31.0039 21.7901 31.0893 22.49L29.1402 22.608C29.0873 22.3029 28.9774 22.079 28.8146 21.9448C28.6478 21.8064 28.4158 21.7372 28.1269 21.7372C27.8868 21.7372 27.7037 21.7901 27.5816 21.8919C27.4596 21.9936 27.3985 22.1197 27.3985 22.2662C27.3985 22.372 27.4514 22.4656 27.5491 22.5551C27.6467 22.6406 27.8746 22.7261 28.2409 22.8034C29.1483 22.9987 29.7994 23.1981 30.19 23.3975C30.5807 23.5969 30.8696 23.8451 31.0446 24.1422C31.2236 24.4351 31.3131 24.7688 31.3131 25.135C31.3131 25.5664 31.1951 25.9611 30.955 26.3233C30.719 26.6854 30.3853 26.9621 29.9581 27.1493C29.5308 27.3365 28.9937 27.4301 28.3426 27.4301C27.2032 27.4301 26.4097 27.2104 25.9702 26.7709C25.5307 26.3233 25.2825 25.7658 25.2215 25.0903ZM31.6143 20.5978H37.9257V22.2581H35.8097V27.3121H33.7343V22.2581H31.6143V20.5978ZM24.6314 4.66266C23.8868 4.60569 23.1339 4.61383 22.3893 4.68707C20.0983 4.90681 17.8724 5.74101 16.0331 7.16931C13.9049 8.81736 12.2894 11.2833 11.6668 14.5509L11.4715 15.5723L10.4542 15.7514C9.4572 15.9263 8.56604 16.1664 7.78474 16.4716C7.02786 16.7646 6.35237 17.1268 5.76233 17.554C5.29029 17.8959 4.88337 18.2784 4.53748 18.6934C3.46727 19.9752 2.97082 21.5826 2.98303 23.2103C2.99524 24.8624 3.53238 26.5308 4.52528 27.9021C4.89558 28.4108 5.32285 28.8788 5.81116 29.2857C6.30761 29.6967 6.86509 30.0385 7.49176 30.2949C7.84578 30.4413 8.22422 30.5634 8.61894 30.6611V33.709C7.80509 33.5625 7.05635 33.3427 6.35644 33.0538C5.43272 32.6713 4.6148 32.1789 3.89454 31.5767C3.21091 31.007 2.61273 30.36 2.10407 29.656C0.749013 27.7841 0.0165481 25.4972 0.000271149 23.2184C-0.0160058 20.9152 0.700182 18.6242 2.2465 16.7687C2.74701 16.1664 3.33705 15.613 4.01255 15.1247C4.79791 14.555 5.69722 14.0748 6.71453 13.6801C7.41444 13.4075 8.16318 13.1796 8.95262 12.9965C9.84785 9.43995 11.7563 6.70135 14.2101 4.80101C16.5051 3.02275 19.2682 1.98509 22.1126 1.71245C23.606 1.57003 25.1197 1.63514 26.6009 1.91184C26.5684 2.04613 26.5399 2.18042 26.5236 2.31877L26.5196 2.34319C26.4911 2.57513 26.4789 2.80708 26.4911 3.0431C26.1777 3.16517 25.8848 3.33201 25.6203 3.53548L25.608 3.54361C25.2133 3.84067 24.8797 4.22318 24.6314 4.66266ZM46.1618 12.4756C46.3897 12.6831 46.6094 12.8988 46.8251 13.1308C47.2605 13.5987 47.6715 14.1277 48.0581 14.7178C49.3602 16.7198 50.0276 19.3933 49.9991 22.0099C49.9706 24.5776 49.2789 27.1331 47.8628 29.013C46.939 30.2379 45.7549 31.2389 44.3347 32.0324C43.3622 32.5777 42.2676 33.0294 41.0753 33.3956V30.242C41.7182 30.0019 42.3164 29.7333 42.8657 29.4281C43.9359 28.8299 44.8108 28.1015 45.466 27.2266C46.4833 25.8716 46.9838 23.955 47.0042 21.9895C47.0286 19.9264 46.524 17.8552 45.5433 16.3495C45.2625 15.9141 44.9533 15.5235 44.6277 15.1735C44.5016 15.0392 44.3754 14.9131 44.2452 14.791C44.2656 14.5876 44.2737 14.38 44.2615 14.1725C44.5748 14.0504 44.8678 13.8836 45.1323 13.6801L45.1445 13.672C45.5636 13.3505 45.9136 12.9436 46.1618 12.4756ZM35.8422 5.20794C37.7181 5.4643 39.0284 7.19373 38.7721 9.06965C38.5157 10.9456 36.7863 12.2599 34.9104 12.0036C33.0344 11.7472 31.7201 10.0178 31.9805 8.14186C32.2409 6.26594 33.9663 4.95157 35.8422 5.20794Z" fill="black"/>
</svg>
