<?xml version="1.0" encoding="utf-8"?>
<svg viewBox="0 0 500 500" xmlns="http://www.w3.org/2000/svg">
  <g transform="matrix(1, 0, 0, 1, 191.69479370117188, 251.7473602294922)">
    <path class="st4" d="M8.36,92.12h19.54V44.67L0,23.76v60.08C0,88.42,3.78,92.12,8.36,92.12L8.36,92.12z" style=""/>
    <path class="st3" d="M94.97,92.12h19.54c4.67,0,8.36-3.78,8.36-8.36v-60L94.97,44.67V92.12L94.97,92.12z" style=""/>
    <path class="st2" d="M94.97,8.4v36.27l27.91-20.91V12.58c0-10.37-11.82-16.25-20.11-10.05L94.97,8.4L94.97,8.4z" style=""/>
    <polygon class="st0" points="27.9,44.67 27.9,8.4 61.44,33.57 94.97,8.4 94.97,44.67 61.44,69.76 27.9,44.67" style=""/>
    <path class="st1" d="M0,12.58v11.18l27.91,20.91V8.4l-7.8-5.87C11.82-3.66,0,2.29,0,12.58L0,12.58z" style=""/>
  </g>
</svg>